%TF.GenerationSoftware,KiCad,Pcbnew,6.0.1+dfsg-1~bpo11+1*%
%TF.CreationDate,2022-01-30T15:20:26-08:00*%
%TF.ProjectId,Stator,53746174-6f72-42e6-9b69-6361645f7063,rev?*%
%TF.SameCoordinates,Original*%
%TF.FileFunction,Copper,L1,Top*%
%TF.FilePolarity,Positive*%
%FSLAX46Y46*%
G04 Gerber Fmt 4.6, Leading zero omitted, Abs format (unit mm)*
G04 Created by KiCad (PCBNEW 6.0.1+dfsg-1~bpo11+1) date 2022-01-30 15:20:26*
%MOMM*%
%LPD*%
G01*
G04 APERTURE LIST*
%TA.AperFunction,NonConductor*%
%ADD10C,0.009999*%
%TD*%
%TA.AperFunction,ComponentPad*%
%ADD11C,2.500000*%
%TD*%
G04 APERTURE END LIST*
D10*
X75000000Y-59999992D02*
X74870928Y-63578539D01*
X74870928Y-63578539D02*
X74492089Y-67053712D01*
X74492089Y-67053712D02*
X73876050Y-70407920D01*
X73876050Y-70407920D02*
X73035376Y-73623570D01*
X73035376Y-73623570D02*
X71982636Y-76683068D01*
X71982636Y-76683068D02*
X70730393Y-79568822D01*
X70730393Y-79568822D02*
X69291216Y-82263238D01*
X69291216Y-82263238D02*
X67677670Y-84748725D01*
X67677670Y-84748725D02*
X65902323Y-87007689D01*
X65902323Y-87007689D02*
X63977739Y-89022536D01*
X63977739Y-89022536D02*
X62963411Y-89932919D01*
X62963411Y-89932919D02*
X61916486Y-90775675D01*
X61916486Y-90775675D02*
X60838535Y-91548606D01*
X60838535Y-91548606D02*
X59731129Y-92249512D01*
X59731129Y-92249512D02*
X58595839Y-92876195D01*
X58595839Y-92876195D02*
X57434236Y-93426455D01*
X57434236Y-93426455D02*
X56247890Y-93898092D01*
X56247890Y-93898092D02*
X55038373Y-94288909D01*
X55038373Y-94288909D02*
X53807254Y-94596706D01*
X53807254Y-94596706D02*
X52556105Y-94819284D01*
X52556105Y-94819284D02*
X51286497Y-94954443D01*
X51286497Y-94954443D02*
X50000000Y-94999985D01*
X50000000Y-94999985D02*
X48713503Y-94954443D01*
X48713503Y-94954443D02*
X47443895Y-94819284D01*
X47443895Y-94819284D02*
X46192746Y-94596706D01*
X46192746Y-94596706D02*
X44961628Y-94288909D01*
X44961628Y-94288909D02*
X43752110Y-93898092D01*
X43752110Y-93898092D02*
X42565765Y-93426455D01*
X42565765Y-93426455D02*
X41404161Y-92876195D01*
X41404161Y-92876195D02*
X40268872Y-92249512D01*
X40268872Y-92249512D02*
X39161466Y-91548606D01*
X39161466Y-91548606D02*
X38083515Y-90775675D01*
X38083515Y-90775675D02*
X37036590Y-89932919D01*
X37036590Y-89932919D02*
X36022262Y-89022536D01*
X36022262Y-89022536D02*
X35042101Y-88046726D01*
X35042101Y-88046726D02*
X34097678Y-87007689D01*
X34097678Y-87007689D02*
X33190564Y-85907622D01*
X33190564Y-85907622D02*
X32322330Y-84748725D01*
X32322330Y-84748725D02*
X31494547Y-83533197D01*
X31494547Y-83533197D02*
X30708784Y-82263238D01*
X30708784Y-82263238D02*
X29966614Y-80941047D01*
X29966614Y-80941047D02*
X29269607Y-79568822D01*
X29269607Y-79568822D02*
X28619334Y-78148762D01*
X28619334Y-78148762D02*
X28017365Y-76683068D01*
X28017365Y-76683068D02*
X27465271Y-75173937D01*
X27465271Y-75173937D02*
X26964624Y-73623570D01*
X26964624Y-73623570D02*
X26516993Y-72034164D01*
X26516993Y-72034164D02*
X26123950Y-70407920D01*
X26123950Y-70407920D02*
X25787066Y-68747036D01*
X25787066Y-68747036D02*
X25507911Y-67053712D01*
X25507911Y-67053712D02*
X25288056Y-65330146D01*
X25288056Y-65330146D02*
X25129072Y-63578539D01*
X25129072Y-63578539D02*
X25032530Y-61801087D01*
X25032530Y-61801087D02*
X25000000Y-59999992D01*
X25000000Y-59999992D02*
X25129072Y-56421446D01*
X25129072Y-56421446D02*
X25507911Y-52946273D01*
X25507911Y-52946273D02*
X26123950Y-49592065D01*
X26123950Y-49592065D02*
X26964624Y-46376415D01*
X26964624Y-46376415D02*
X28017365Y-43316917D01*
X28017365Y-43316917D02*
X29269607Y-40431163D01*
X29269607Y-40431163D02*
X30708784Y-37736746D01*
X30708784Y-37736746D02*
X32322330Y-35251259D01*
X32322330Y-35251259D02*
X34097678Y-32992296D01*
X34097678Y-32992296D02*
X36022262Y-30977448D01*
X36022262Y-30977448D02*
X37036590Y-30067065D01*
X37036590Y-30067065D02*
X38083515Y-29224309D01*
X38083515Y-29224309D02*
X39161466Y-28451378D01*
X39161466Y-28451378D02*
X40268872Y-27750472D01*
X40268872Y-27750472D02*
X41404161Y-27123789D01*
X41404161Y-27123789D02*
X42565765Y-26573529D01*
X42565765Y-26573529D02*
X43752110Y-26101891D01*
X43752110Y-26101891D02*
X44961628Y-25711074D01*
X44961628Y-25711074D02*
X46192746Y-25403278D01*
X46192746Y-25403278D02*
X47443895Y-25180700D01*
X47443895Y-25180700D02*
X48713503Y-25045541D01*
X48713503Y-25045541D02*
X50000000Y-24999999D01*
X50000000Y-24999999D02*
X51286497Y-25045541D01*
X51286497Y-25045541D02*
X52556105Y-25180700D01*
X52556105Y-25180700D02*
X53807254Y-25403278D01*
X53807254Y-25403278D02*
X55038373Y-25711074D01*
X55038373Y-25711074D02*
X56247890Y-26101891D01*
X56247890Y-26101891D02*
X57434236Y-26573529D01*
X57434236Y-26573529D02*
X58595839Y-27123789D01*
X58595839Y-27123789D02*
X59731129Y-27750472D01*
X59731129Y-27750472D02*
X60838535Y-28451378D01*
X60838535Y-28451378D02*
X61916486Y-29224309D01*
X61916486Y-29224309D02*
X62963411Y-30067065D01*
X62963411Y-30067065D02*
X63977739Y-30977448D01*
X63977739Y-30977448D02*
X64957900Y-31953258D01*
X64957900Y-31953258D02*
X65902323Y-32992296D01*
X65902323Y-32992296D02*
X66809436Y-34092363D01*
X66809436Y-34092363D02*
X67677670Y-35251259D01*
X67677670Y-35251259D02*
X68505454Y-36466787D01*
X68505454Y-36466787D02*
X69291216Y-37736746D01*
X69291216Y-37736746D02*
X70033386Y-39058938D01*
X70033386Y-39058938D02*
X70730393Y-40431163D01*
X70730393Y-40431163D02*
X71380667Y-41851222D01*
X71380667Y-41851222D02*
X71982636Y-43316917D01*
X71982636Y-43316917D02*
X72534729Y-44826047D01*
X72534729Y-44826047D02*
X73035376Y-46376415D01*
X73035376Y-46376415D02*
X73483007Y-47965820D01*
X73483007Y-47965820D02*
X73876050Y-49592065D01*
X73876050Y-49592065D02*
X74212934Y-51252948D01*
X74212934Y-51252948D02*
X74492089Y-52946273D01*
X74492089Y-52946273D02*
X74711944Y-54669838D01*
X74711944Y-54669838D02*
X74870928Y-56421446D01*
X74870928Y-56421446D02*
X74967470Y-58198897D01*
X74967470Y-58198897D02*
X75000000Y-59999992D01*
X75000000Y-59999992D02*
X75000000Y-59999992D01*
G36*
X51286497Y-25045541D02*
G01*
X52556105Y-25180700D01*
X53807254Y-25403278D01*
X55038373Y-25711074D01*
X56247890Y-26101891D01*
X57434236Y-26573529D01*
X58595839Y-27123789D01*
X59731129Y-27750472D01*
X60838535Y-28451378D01*
X61916486Y-29224309D01*
X62963411Y-30067065D01*
X63977739Y-30977448D01*
X64957900Y-31953258D01*
X65902323Y-32992296D01*
X66809436Y-34092363D01*
X67677670Y-35251259D01*
X68505454Y-36466787D01*
X69291216Y-37736746D01*
X70033386Y-39058938D01*
X70730393Y-40431163D01*
X71380667Y-41851222D01*
X71982636Y-43316917D01*
X72534729Y-44826047D01*
X73035376Y-46376415D01*
X73483007Y-47965820D01*
X73876050Y-49592065D01*
X74212934Y-51252948D01*
X74492089Y-52946273D01*
X74711944Y-54669838D01*
X74870928Y-56421446D01*
X74967470Y-58198897D01*
X75000000Y-59999992D01*
X74870928Y-63578539D01*
X74492089Y-67053712D01*
X73876050Y-70407920D01*
X73035376Y-73623570D01*
X71982636Y-76683068D01*
X70730393Y-79568822D01*
X69291216Y-82263238D01*
X67677670Y-84748725D01*
X65902323Y-87007689D01*
X63977739Y-89022536D01*
X62963411Y-89932919D01*
X61916486Y-90775675D01*
X60838535Y-91548606D01*
X59731129Y-92249512D01*
X58595839Y-92876195D01*
X57434236Y-93426455D01*
X56247890Y-93898092D01*
X55038373Y-94288909D01*
X53807254Y-94596706D01*
X52556105Y-94819284D01*
X51286497Y-94954443D01*
X50000000Y-94999985D01*
X48713503Y-94954443D01*
X47443895Y-94819284D01*
X46192746Y-94596706D01*
X44961628Y-94288909D01*
X43752110Y-93898092D01*
X42565765Y-93426455D01*
X41404161Y-92876195D01*
X40268872Y-92249512D01*
X39161466Y-91548606D01*
X38083515Y-90775675D01*
X37036590Y-89932919D01*
X36022262Y-89022536D01*
X35042101Y-88046726D01*
X34097678Y-87007689D01*
X33190564Y-85907622D01*
X32322330Y-84748725D01*
X31494547Y-83533197D01*
X30708784Y-82263238D01*
X29966614Y-80941047D01*
X29269607Y-79568822D01*
X28619334Y-78148762D01*
X28017365Y-76683068D01*
X27465271Y-75173937D01*
X26964624Y-73623570D01*
X26516993Y-72034164D01*
X26123950Y-70407920D01*
X25787066Y-68747036D01*
X25507911Y-67053712D01*
X25288056Y-65330146D01*
X25129072Y-63578539D01*
X25032530Y-61801087D01*
X25000000Y-59999992D01*
X25129072Y-56421446D01*
X25507911Y-52946273D01*
X26123950Y-49592065D01*
X26964624Y-46376415D01*
X28017365Y-43316917D01*
X29269607Y-40431163D01*
X30708784Y-37736746D01*
X32322330Y-35251259D01*
X34097678Y-32992296D01*
X36022262Y-30977448D01*
X37036590Y-30067065D01*
X38083515Y-29224309D01*
X39161466Y-28451378D01*
X40268872Y-27750472D01*
X41404161Y-27123789D01*
X42565765Y-26573529D01*
X43752110Y-26101891D01*
X44961628Y-25711074D01*
X46192746Y-25403278D01*
X47443895Y-25180700D01*
X48713503Y-25045541D01*
X50000000Y-24999999D01*
X51286497Y-25045541D01*
G37*
X51286497Y-25045541D02*
X52556105Y-25180700D01*
X53807254Y-25403278D01*
X55038373Y-25711074D01*
X56247890Y-26101891D01*
X57434236Y-26573529D01*
X58595839Y-27123789D01*
X59731129Y-27750472D01*
X60838535Y-28451378D01*
X61916486Y-29224309D01*
X62963411Y-30067065D01*
X63977739Y-30977448D01*
X64957900Y-31953258D01*
X65902323Y-32992296D01*
X66809436Y-34092363D01*
X67677670Y-35251259D01*
X68505454Y-36466787D01*
X69291216Y-37736746D01*
X70033386Y-39058938D01*
X70730393Y-40431163D01*
X71380667Y-41851222D01*
X71982636Y-43316917D01*
X72534729Y-44826047D01*
X73035376Y-46376415D01*
X73483007Y-47965820D01*
X73876050Y-49592065D01*
X74212934Y-51252948D01*
X74492089Y-52946273D01*
X74711944Y-54669838D01*
X74870928Y-56421446D01*
X74967470Y-58198897D01*
X75000000Y-59999992D01*
X74870928Y-63578539D01*
X74492089Y-67053712D01*
X73876050Y-70407920D01*
X73035376Y-73623570D01*
X71982636Y-76683068D01*
X70730393Y-79568822D01*
X69291216Y-82263238D01*
X67677670Y-84748725D01*
X65902323Y-87007689D01*
X63977739Y-89022536D01*
X62963411Y-89932919D01*
X61916486Y-90775675D01*
X60838535Y-91548606D01*
X59731129Y-92249512D01*
X58595839Y-92876195D01*
X57434236Y-93426455D01*
X56247890Y-93898092D01*
X55038373Y-94288909D01*
X53807254Y-94596706D01*
X52556105Y-94819284D01*
X51286497Y-94954443D01*
X50000000Y-94999985D01*
X48713503Y-94954443D01*
X47443895Y-94819284D01*
X46192746Y-94596706D01*
X44961628Y-94288909D01*
X43752110Y-93898092D01*
X42565765Y-93426455D01*
X41404161Y-92876195D01*
X40268872Y-92249512D01*
X39161466Y-91548606D01*
X38083515Y-90775675D01*
X37036590Y-89932919D01*
X36022262Y-89022536D01*
X35042101Y-88046726D01*
X34097678Y-87007689D01*
X33190564Y-85907622D01*
X32322330Y-84748725D01*
X31494547Y-83533197D01*
X30708784Y-82263238D01*
X29966614Y-80941047D01*
X29269607Y-79568822D01*
X28619334Y-78148762D01*
X28017365Y-76683068D01*
X27465271Y-75173937D01*
X26964624Y-73623570D01*
X26516993Y-72034164D01*
X26123950Y-70407920D01*
X25787066Y-68747036D01*
X25507911Y-67053712D01*
X25288056Y-65330146D01*
X25129072Y-63578539D01*
X25032530Y-61801087D01*
X25000000Y-59999992D01*
X25129072Y-56421446D01*
X25507911Y-52946273D01*
X26123950Y-49592065D01*
X26964624Y-46376415D01*
X28017365Y-43316917D01*
X29269607Y-40431163D01*
X30708784Y-37736746D01*
X32322330Y-35251259D01*
X34097678Y-32992296D01*
X36022262Y-30977448D01*
X37036590Y-30067065D01*
X38083515Y-29224309D01*
X39161466Y-28451378D01*
X40268872Y-27750472D01*
X41404161Y-27123789D01*
X42565765Y-26573529D01*
X43752110Y-26101891D01*
X44961628Y-25711074D01*
X46192746Y-25403278D01*
X47443895Y-25180700D01*
X48713503Y-25045541D01*
X50000000Y-24999999D01*
X51286497Y-25045541D01*
D11*
%TO.P,,1*%
%TO.N,N/C*%
X34250000Y-85000000D03*
%TD*%
%TO.P,,1*%
%TO.N,N/C*%
X29750000Y-77500000D03*
%TD*%
%TO.P,,1*%
%TO.N,N/C*%
X29750000Y-42500000D03*
%TD*%
%TO.P,,1*%
%TO.N,N/C*%
X34250000Y-35000000D03*
%TD*%
%TO.P,,1*%
%TO.N,N/C*%
X37250000Y-70000000D03*
%TD*%
%TO.P,,1*%
%TO.N,N/C*%
X56750000Y-82500000D03*
%TD*%
%TO.P,,1*%
%TO.N,N/C*%
X38750000Y-62500000D03*
%TD*%
%TO.P,,1*%
%TO.N,N/C*%
X50750000Y-77500000D03*
%TD*%
%TO.P,,1*%
%TO.N,N/C*%
X64250000Y-60000000D03*
%TD*%
%TO.P,,1*%
%TO.N,N/C*%
X53750000Y-52500000D03*
%TD*%
%TO.P,,1*%
%TO.N,N/C*%
X44750000Y-52500000D03*
%TD*%
%TO.P,,1*%
%TO.N,N/C*%
X56750000Y-37500000D03*
%TD*%
%TO.P,,1*%
%TO.N,N/C*%
X43250000Y-30000000D03*
%TD*%
%TO.P,,1*%
%TO.N,N/C*%
X52250000Y-45000000D03*
%TD*%
%TO.P,,1*%
%TO.N,N/C*%
X62750000Y-32500000D03*
%TD*%
%TO.P,,1*%
%TO.N,N/C*%
X68750000Y-42500000D03*
%TD*%
%TO.P,,1*%
%TO.N,N/C*%
X59750000Y-72500000D03*
%TD*%
%TO.P,,1*%
%TO.N,N/C*%
X34250000Y-40000000D03*
%TD*%
%TO.P,,1*%
%TO.N,N/C*%
X49250000Y-65000000D03*
%TD*%
%TO.P,,1*%
%TO.N,N/C*%
X37250000Y-40000000D03*
%TD*%
%TO.P,,1*%
%TO.N,N/C*%
X49250000Y-60000000D03*
%TD*%
%TO.P,,1*%
%TO.N,N/C*%
X58250000Y-75000000D03*
%TD*%
%TO.P,,1*%
%TO.N,N/C*%
X61250000Y-55000000D03*
%TD*%
%TO.P,,1*%
%TO.N,N/C*%
X53750000Y-82500000D03*
%TD*%
%TO.P,,1*%
%TO.N,N/C*%
X40250000Y-55000000D03*
%TD*%
%TO.P,,1*%
%TO.N,N/C*%
X35750000Y-47500000D03*
%TD*%
%TO.P,,1*%
%TO.N,N/C*%
X61250000Y-50000000D03*
%TD*%
%TO.P,,1*%
%TO.N,N/C*%
X61250000Y-65000000D03*
%TD*%
%TO.P,,1*%
%TO.N,N/C*%
X58250000Y-70000000D03*
%TD*%
%TO.P,,1*%
%TO.N,N/C*%
X49250000Y-40000000D03*
%TD*%
%TO.P,,1*%
%TO.N,N/C*%
X53750000Y-72500000D03*
%TD*%
%TO.P,,1*%
%TO.N,N/C*%
X59750000Y-87500000D03*
%TD*%
%TO.P,,1*%
%TO.N,N/C*%
X38750000Y-82500000D03*
%TD*%
%TO.P,,1*%
%TO.N,N/C*%
X28250000Y-70000000D03*
%TD*%
%TO.P,,1*%
%TO.N,N/C*%
X35750000Y-82500000D03*
%TD*%
%TO.P,,1*%
%TO.N,N/C*%
X70250000Y-70000000D03*
%TD*%
%TO.P,,1*%
%TO.N,N/C*%
X37250000Y-65000000D03*
%TD*%
%TO.P,,1*%
%TO.N,N/C*%
X50750000Y-52500000D03*
%TD*%
%TO.P,,1*%
%TO.N,N/C*%
X52250000Y-30000000D03*
%TD*%
%TO.P,,1*%
%TO.N,N/C*%
X61250000Y-60000000D03*
%TD*%
%TO.P,,1*%
%TO.N,N/C*%
X55250000Y-65000000D03*
%TD*%
%TO.P,,1*%
%TO.N,N/C*%
X67250000Y-70000000D03*
%TD*%
%TO.P,,1*%
%TO.N,N/C*%
X31250000Y-50000000D03*
%TD*%
%TO.P,,1*%
%TO.N,N/C*%
X43250000Y-55000000D03*
%TD*%
%TO.P,,1*%
%TO.N,N/C*%
X61250000Y-35000000D03*
%TD*%
%TO.P,,1*%
%TO.N,N/C*%
X28250000Y-55000000D03*
%TD*%
%TO.P,,1*%
%TO.N,N/C*%
X31250000Y-55000000D03*
%TD*%
%TO.P,,1*%
%TO.N,N/C*%
X35750000Y-37500000D03*
%TD*%
%TO.P,,1*%
%TO.N,N/C*%
X38750000Y-32500000D03*
%TD*%
%TO.P,,1*%
%TO.N,N/C*%
X65750000Y-42500000D03*
%TD*%
%TO.P,,1*%
%TO.N,N/C*%
X68750000Y-67500000D03*
%TD*%
%TO.P,,1*%
%TO.N,N/C*%
X47750000Y-32500000D03*
%TD*%
%TO.P,,1*%
%TO.N,N/C*%
X53750000Y-32500000D03*
%TD*%
%TO.P,,1*%
%TO.N,N/C*%
X41750000Y-57500000D03*
%TD*%
%TO.P,,1*%
%TO.N,N/C*%
X62750000Y-72500000D03*
%TD*%
%TO.P,,1*%
%TO.N,N/C*%
X38750000Y-42500000D03*
%TD*%
%TO.P,,1*%
%TO.N,N/C*%
X46250000Y-35000000D03*
%TD*%
%TO.P,,1*%
%TO.N,N/C*%
X31250000Y-75000000D03*
%TD*%
%TO.P,,1*%
%TO.N,N/C*%
X50750000Y-32500000D03*
%TD*%
%TO.P,,1*%
%TO.N,N/C*%
X70250000Y-55000000D03*
%TD*%
%TO.P,,1*%
%TO.N,N/C*%
X46250000Y-40000000D03*
%TD*%
%TO.P,,1*%
%TO.N,N/C*%
X46250000Y-75000000D03*
%TD*%
%TO.P,,1*%
%TO.N,N/C*%
X44750000Y-72500000D03*
%TD*%
%TO.P,,1*%
%TO.N,N/C*%
X32750000Y-47500000D03*
%TD*%
%TO.P,,1*%
%TO.N,N/C*%
X62750000Y-57500000D03*
%TD*%
%TO.P,,1*%
%TO.N,N/C*%
X52250000Y-80000000D03*
%TD*%
%TO.P,,1*%
%TO.N,N/C*%
X35750000Y-42500000D03*
%TD*%
%TO.P,,1*%
%TO.N,N/C*%
X40250000Y-45000000D03*
%TD*%
%TO.P,,1*%
%TO.N,N/C*%
X34250000Y-70000000D03*
%TD*%
%TO.P,,1*%
%TO.N,N/C*%
X28250000Y-60000000D03*
%TD*%
%TO.P,,1*%
%TO.N,N/C*%
X61250000Y-70000000D03*
%TD*%
%TO.P,,1*%
%TO.N,N/C*%
X35750000Y-62500000D03*
%TD*%
%TO.P,,1*%
%TO.N,N/C*%
X65750000Y-52500000D03*
%TD*%
%TO.P,,1*%
%TO.N,N/C*%
X73250000Y-65000000D03*
%TD*%
%TO.P,,1*%
%TO.N,N/C*%
X49250000Y-35000000D03*
%TD*%
%TO.P,,1*%
%TO.N,N/C*%
X43250000Y-45000000D03*
%TD*%
%TO.P,,1*%
%TO.N,N/C*%
X47750000Y-62500000D03*
%TD*%
%TO.P,,1*%
%TO.N,N/C*%
X55250000Y-35000000D03*
%TD*%
%TO.P,,1*%
%TO.N,N/C*%
X58250000Y-55000000D03*
%TD*%
%TO.P,,1*%
%TO.N,N/C*%
X59750000Y-47500000D03*
%TD*%
%TO.P,,1*%
%TO.N,N/C*%
X55250000Y-30000000D03*
%TD*%
%TO.P,,1*%
%TO.N,N/C*%
X53750000Y-92500000D03*
%TD*%
%TO.P,,1*%
%TO.N,N/C*%
X46250000Y-90000000D03*
%TD*%
%TO.P,,1*%
%TO.N,N/C*%
X34250000Y-45000000D03*
%TD*%
%TO.P,,1*%
%TO.N,N/C*%
X70250000Y-45000000D03*
%TD*%
%TO.P,,1*%
%TO.N,N/C*%
X49250000Y-75000000D03*
%TD*%
%TO.P,,1*%
%TO.N,N/C*%
X32750000Y-57500000D03*
%TD*%
%TO.P,,1*%
%TO.N,N/C*%
X47750000Y-37500000D03*
%TD*%
%TO.P,,1*%
%TO.N,N/C*%
X43250000Y-50000000D03*
%TD*%
%TO.P,,1*%
%TO.N,N/C*%
X68750000Y-47500000D03*
%TD*%
%TO.P,,1*%
%TO.N,N/C*%
X58250000Y-30000000D03*
%TD*%
%TO.P,,1*%
%TO.N,N/C*%
X55250000Y-55000000D03*
%TD*%
%TO.P,,1*%
%TO.N,N/C*%
X38750000Y-57500000D03*
%TD*%
%TO.P,,1*%
%TO.N,N/C*%
X47750000Y-57500000D03*
%TD*%
%TO.P,,1*%
%TO.N,N/C*%
X26750000Y-62500000D03*
%TD*%
%TO.P,,1*%
%TO.N,N/C*%
X65750000Y-77500000D03*
%TD*%
%TO.P,,1*%
%TO.N,N/C*%
X29750000Y-67500000D03*
%TD*%
%TO.P,,1*%
%TO.N,N/C*%
X38750000Y-77500000D03*
%TD*%
%TO.P,,1*%
%TO.N,N/C*%
X46250000Y-70000000D03*
%TD*%
%TO.P,,1*%
%TO.N,N/C*%
X47750000Y-27500000D03*
%TD*%
%TO.P,,1*%
%TO.N,N/C*%
X40250000Y-40000000D03*
%TD*%
%TO.P,,1*%
%TO.N,N/C*%
X44750000Y-37500000D03*
%TD*%
%TO.P,,1*%
%TO.N,N/C*%
X58250000Y-65000000D03*
%TD*%
%TO.P,,1*%
%TO.N,N/C*%
X50750000Y-62500000D03*
%TD*%
%TO.P,,1*%
%TO.N,N/C*%
X73250000Y-60000000D03*
%TD*%
%TO.P,,1*%
%TO.N,N/C*%
X59750000Y-57500000D03*
%TD*%
%TO.P,,1*%
%TO.N,N/C*%
X44750000Y-77500000D03*
%TD*%
%TO.P,,1*%
%TO.N,N/C*%
X61250000Y-45000000D03*
%TD*%
%TO.P,,1*%
%TO.N,N/C*%
X64250000Y-40000000D03*
%TD*%
%TO.P,,1*%
%TO.N,N/C*%
X56750000Y-42500000D03*
%TD*%
%TO.P,,1*%
%TO.N,N/C*%
X40250000Y-90000000D03*
%TD*%
%TO.P,,1*%
%TO.N,N/C*%
X46250000Y-50000000D03*
%TD*%
%TO.P,,1*%
%TO.N,N/C*%
X43250000Y-80000000D03*
%TD*%
%TO.P,,1*%
%TO.N,N/C*%
X58250000Y-40000000D03*
%TD*%
%TO.P,,1*%
%TO.N,N/C*%
X44750000Y-42500000D03*
%TD*%
%TO.P,,1*%
%TO.N,N/C*%
X41750000Y-52500000D03*
%TD*%
%TO.P,,1*%
%TO.N,N/C*%
X73250000Y-55000000D03*
%TD*%
%TO.P,,1*%
%TO.N,N/C*%
X37250000Y-80000000D03*
%TD*%
%TO.P,,1*%
%TO.N,N/C*%
X50750000Y-37500000D03*
%TD*%
%TO.P,,1*%
%TO.N,N/C*%
X50750000Y-92500000D03*
%TD*%
%TO.P,,1*%
%TO.N,N/C*%
X43250000Y-35000000D03*
%TD*%
%TO.P,,1*%
%TO.N,N/C*%
X56750000Y-72500000D03*
%TD*%
%TO.P,,1*%
%TO.N,N/C*%
X47750000Y-77500000D03*
%TD*%
%TO.P,,1*%
%TO.N,N/C*%
X29750000Y-62500000D03*
%TD*%
%TO.P,,1*%
%TO.N,N/C*%
X53750000Y-57500000D03*
%TD*%
%TO.P,,1*%
%TO.N,N/C*%
X55250000Y-90000000D03*
%TD*%
%TO.P,,1*%
%TO.N,N/C*%
X67250000Y-60000000D03*
%TD*%
%TO.P,,1*%
%TO.N,N/C*%
X29750000Y-52500000D03*
%TD*%
%TO.P,,1*%
%TO.N,N/C*%
X44750000Y-27500000D03*
%TD*%
%TO.P,,1*%
%TO.N,N/C*%
X59750000Y-77500000D03*
%TD*%
%TO.P,,1*%
%TO.N,N/C*%
X44750000Y-57500000D03*
%TD*%
%TO.P,,1*%
%TO.N,N/C*%
X32750000Y-72500000D03*
%TD*%
%TO.P,,1*%
%TO.N,N/C*%
X49250000Y-70000000D03*
%TD*%
%TO.P,,1*%
%TO.N,N/C*%
X32750000Y-37500000D03*
%TD*%
%TO.P,,1*%
%TO.N,N/C*%
X41750000Y-62500000D03*
%TD*%
%TO.P,,1*%
%TO.N,N/C*%
X58250000Y-35000000D03*
%TD*%
%TO.P,,1*%
%TO.N,N/C*%
X68750000Y-57500000D03*
%TD*%
%TO.P,,1*%
%TO.N,N/C*%
X31250000Y-80000000D03*
%TD*%
%TO.P,,1*%
%TO.N,N/C*%
X40250000Y-35000000D03*
%TD*%
%TO.P,,1*%
%TO.N,N/C*%
X41750000Y-72500000D03*
%TD*%
%TO.P,,1*%
%TO.N,N/C*%
X70250000Y-60000000D03*
%TD*%
%TO.P,,1*%
%TO.N,N/C*%
X35750000Y-77500000D03*
%TD*%
%TO.P,,1*%
%TO.N,N/C*%
X62750000Y-62500000D03*
%TD*%
%TO.P,,1*%
%TO.N,N/C*%
X49250000Y-55000000D03*
%TD*%
%TO.P,,1*%
%TO.N,N/C*%
X71750000Y-52500000D03*
%TD*%
%TO.P,,1*%
%TO.N,N/C*%
X34250000Y-75000000D03*
%TD*%
%TO.P,,1*%
%TO.N,N/C*%
X65750000Y-82500000D03*
%TD*%
%TO.P,,1*%
%TO.N,N/C*%
X38750000Y-72500000D03*
%TD*%
%TO.P,,1*%
%TO.N,N/C*%
X38750000Y-37500000D03*
%TD*%
%TO.P,,1*%
%TO.N,N/C*%
X56750000Y-87500000D03*
%TD*%
%TO.P,,1*%
%TO.N,N/C*%
X53750000Y-77500000D03*
%TD*%
%TO.P,,1*%
%TO.N,N/C*%
X41750000Y-82500000D03*
%TD*%
%TO.P,,1*%
%TO.N,N/C*%
X68750000Y-62500000D03*
%TD*%
%TO.P,,1*%
%TO.N,N/C*%
X64250000Y-65000000D03*
%TD*%
%TO.P,,1*%
%TO.N,N/C*%
X37250000Y-85000000D03*
%TD*%
%TO.P,,1*%
%TO.N,N/C*%
X37250000Y-45000000D03*
%TD*%
%TO.P,,1*%
%TO.N,N/C*%
X44750000Y-47500000D03*
%TD*%
%TO.P,,1*%
%TO.N,N/C*%
X44750000Y-32500000D03*
%TD*%
%TO.P,,1*%
%TO.N,N/C*%
X47750000Y-52500000D03*
%TD*%
%TO.P,,1*%
%TO.N,N/C*%
X64250000Y-85000000D03*
%TD*%
%TO.P,,1*%
%TO.N,N/C*%
X67250000Y-45000000D03*
%TD*%
%TO.P,,1*%
%TO.N,N/C*%
X58250000Y-45000000D03*
%TD*%
%TO.P,,1*%
%TO.N,N/C*%
X52250000Y-40000000D03*
%TD*%
%TO.P,,1*%
%TO.N,N/C*%
X58250000Y-90000000D03*
%TD*%
%TO.P,,1*%
%TO.N,N/C*%
X43250000Y-60000000D03*
%TD*%
%TO.P,,1*%
%TO.N,N/C*%
X26750000Y-57500000D03*
%TD*%
%TO.P,,1*%
%TO.N,N/C*%
X46250000Y-45000000D03*
%TD*%
%TO.P,,1*%
%TO.N,N/C*%
X67250000Y-50000000D03*
%TD*%
%TO.P,,1*%
%TO.N,N/C*%
X34250000Y-65000000D03*
%TD*%
%TO.P,,1*%
%TO.N,N/C*%
X56750000Y-47500000D03*
%TD*%
%TO.P,,1*%
%TO.N,N/C*%
X41750000Y-77500000D03*
%TD*%
%TO.P,,1*%
%TO.N,N/C*%
X58250000Y-85000000D03*
%TD*%
%TO.P,,1*%
%TO.N,N/C*%
X43250000Y-65000000D03*
%TD*%
%TO.P,,1*%
%TO.N,N/C*%
X52250000Y-70000000D03*
%TD*%
%TO.P,,1*%
%TO.N,N/C*%
X52250000Y-50000000D03*
%TD*%
%TO.P,,1*%
%TO.N,N/C*%
X62750000Y-52500000D03*
%TD*%
%TO.P,,1*%
%TO.N,N/C*%
X40250000Y-85000000D03*
%TD*%
%TO.P,,1*%
%TO.N,N/C*%
X64250000Y-80000000D03*
%TD*%
%TO.P,,1*%
%TO.N,N/C*%
X32750000Y-67500000D03*
%TD*%
%TO.P,,1*%
%TO.N,N/C*%
X52250000Y-85000000D03*
%TD*%
%TO.P,,1*%
%TO.N,N/C*%
X70250000Y-75000000D03*
%TD*%
%TO.P,,1*%
%TO.N,N/C*%
X44750000Y-67500000D03*
%TD*%
%TO.P,,1*%
%TO.N,N/C*%
X65750000Y-47500000D03*
%TD*%
%TO.P,,1*%
%TO.N,N/C*%
X52250000Y-35000000D03*
%TD*%
%TO.P,,1*%
%TO.N,N/C*%
X29750000Y-47500000D03*
%TD*%
%TO.P,,1*%
%TO.N,N/C*%
X44750000Y-92500000D03*
%TD*%
%TO.P,,1*%
%TO.N,N/C*%
X62750000Y-87500000D03*
%TD*%
%TO.P,,1*%
%TO.N,N/C*%
X50750000Y-27500000D03*
%TD*%
%TO.P,,1*%
%TO.N,N/C*%
X58250000Y-80000000D03*
%TD*%
%TO.P,,1*%
%TO.N,N/C*%
X50750000Y-67500000D03*
%TD*%
%TO.P,,1*%
%TO.N,N/C*%
X47750000Y-42500000D03*
%TD*%
%TO.P,,1*%
%TO.N,N/C*%
X61250000Y-85000000D03*
%TD*%
%TO.P,,1*%
%TO.N,N/C*%
X53750000Y-37500000D03*
%TD*%
%TO.P,,1*%
%TO.N,N/C*%
X49250000Y-80000000D03*
%TD*%
%TO.P,,1*%
%TO.N,N/C*%
X61250000Y-40000000D03*
%TD*%
%TO.P,,1*%
%TO.N,N/C*%
X68750000Y-72500000D03*
%TD*%
%TO.P,,1*%
%TO.N,N/C*%
X56750000Y-62500000D03*
%TD*%
%TO.P,,1*%
%TO.N,N/C*%
X38750000Y-87500000D03*
%TD*%
%TO.P,,1*%
%TO.N,N/C*%
X34250000Y-60000000D03*
%TD*%
%TO.P,,1*%
%TO.N,N/C*%
X32750000Y-42500000D03*
%TD*%
%TO.P,,1*%
%TO.N,N/C*%
X49250000Y-85000000D03*
%TD*%
%TO.P,,1*%
%TO.N,N/C*%
X34250000Y-80000000D03*
%TD*%
%TO.P,,1*%
%TO.N,N/C*%
X70250000Y-50000000D03*
%TD*%
%TO.P,,1*%
%TO.N,N/C*%
X61250000Y-75000000D03*
%TD*%
%TO.P,,1*%
%TO.N,N/C*%
X56750000Y-32500000D03*
%TD*%
%TO.P,,1*%
%TO.N,N/C*%
X53750000Y-87500000D03*
%TD*%
%TO.P,,1*%
%TO.N,N/C*%
X55250000Y-60000000D03*
%TD*%
%TO.P,,1*%
%TO.N,N/C*%
X55250000Y-80000000D03*
%TD*%
%TO.P,,1*%
%TO.N,N/C*%
X28250000Y-50000000D03*
%TD*%
%TO.P,,1*%
%TO.N,N/C*%
X31250000Y-45000000D03*
%TD*%
%TO.P,,1*%
%TO.N,N/C*%
X43250000Y-75000000D03*
%TD*%
%TO.P,,1*%
%TO.N,N/C*%
X64250000Y-55000000D03*
%TD*%
%TO.P,,1*%
%TO.N,N/C*%
X56750000Y-52500000D03*
%TD*%
%TO.P,,1*%
%TO.N,N/C*%
X52250000Y-75000000D03*
%TD*%
%TO.P,,1*%
%TO.N,N/C*%
X53750000Y-42500000D03*
%TD*%
%TO.P,,1*%
%TO.N,N/C*%
X71750000Y-67500000D03*
%TD*%
%TO.P,,1*%
%TO.N,N/C*%
X41750000Y-47500000D03*
%TD*%
%TO.P,,1*%
%TO.N,N/C*%
X71750000Y-62500000D03*
%TD*%
%TO.P,,1*%
%TO.N,N/C*%
X50750000Y-57500000D03*
%TD*%
%TO.P,,1*%
%TO.N,N/C*%
X67250000Y-80000000D03*
%TD*%
%TO.P,,1*%
%TO.N,N/C*%
X35750000Y-67500000D03*
%TD*%
%TO.P,,1*%
%TO.N,N/C*%
X47750000Y-82500000D03*
%TD*%
%TO.P,,1*%
%TO.N,N/C*%
X70250000Y-65000000D03*
%TD*%
%TO.P,,1*%
%TO.N,N/C*%
X32750000Y-82500000D03*
%TD*%
%TO.P,,1*%
%TO.N,N/C*%
X52250000Y-55000000D03*
%TD*%
%TO.P,,1*%
%TO.N,N/C*%
X68750000Y-52500000D03*
%TD*%
%TO.P,,1*%
%TO.N,N/C*%
X38750000Y-52500000D03*
%TD*%
%TO.P,,1*%
%TO.N,N/C*%
X65750000Y-57500000D03*
%TD*%
%TO.P,,1*%
%TO.N,N/C*%
X49250000Y-30000000D03*
%TD*%
%TO.P,,1*%
%TO.N,N/C*%
X29750000Y-72500000D03*
%TD*%
%TO.P,,1*%
%TO.N,N/C*%
X35750000Y-57500000D03*
%TD*%
%TO.P,,1*%
%TO.N,N/C*%
X44750000Y-87500000D03*
%TD*%
%TO.P,,1*%
%TO.N,N/C*%
X53750000Y-47500000D03*
%TD*%
%TO.P,,1*%
%TO.N,N/C*%
X32750000Y-52500000D03*
%TD*%
%TO.P,,1*%
%TO.N,N/C*%
X64250000Y-70000000D03*
%TD*%
%TO.P,,1*%
%TO.N,N/C*%
X62750000Y-42500000D03*
%TD*%
%TO.P,,1*%
%TO.N,N/C*%
X40250000Y-50000000D03*
%TD*%
%TO.P,,1*%
%TO.N,N/C*%
X61250000Y-80000000D03*
%TD*%
%TO.P,,1*%
%TO.N,N/C*%
X62750000Y-82500000D03*
%TD*%
%TO.P,,1*%
%TO.N,N/C*%
X37250000Y-60000000D03*
%TD*%
%TO.P,,1*%
%TO.N,N/C*%
X44750000Y-82500000D03*
%TD*%
%TO.P,,1*%
%TO.N,N/C*%
X29750000Y-57500000D03*
%TD*%
%TO.P,,1*%
%TO.N,N/C*%
X56750000Y-57500000D03*
%TD*%
%TO.P,,1*%
%TO.N,N/C*%
X31250000Y-40000000D03*
%TD*%
%TO.P,,1*%
%TO.N,N/C*%
X50750000Y-47500000D03*
%TD*%
%TO.P,,1*%
%TO.N,N/C*%
X65750000Y-37500000D03*
%TD*%
%TO.P,,1*%
%TO.N,N/C*%
X55250000Y-40000000D03*
%TD*%
%TO.P,,1*%
%TO.N,N/C*%
X59750000Y-37500000D03*
%TD*%
%TO.P,,1*%
%TO.N,N/C*%
X40250000Y-75000000D03*
%TD*%
%TO.P,,1*%
%TO.N,N/C*%
X47750000Y-67500000D03*
%TD*%
%TO.P,,e*%
%TO.N,N/C*%
X46250000Y-80000000D03*
%TD*%
%TO.P,,1*%
%TO.N,N/C*%
X47750000Y-92500000D03*
%TD*%
%TO.P,,1*%
%TO.N,N/C*%
X59750000Y-32500000D03*
%TD*%
%TO.P,,1*%
%TO.N,N/C*%
X40250000Y-70000000D03*
%TD*%
%TO.P,,1*%
%TO.N,N/C*%
X43250000Y-40000000D03*
%TD*%
%TO.P,,1*%
%TO.N,N/C*%
X62750000Y-67500000D03*
%TD*%
%TO.P,,1*%
%TO.N,N/C*%
X38750000Y-47500000D03*
%TD*%
%TO.P,,1*%
%TO.N,N/C*%
X67250000Y-75000000D03*
%TD*%
%TO.P,,1*%
%TO.N,N/C*%
X47750000Y-72500000D03*
%TD*%
%TO.P,,1*%
%TO.N,N/C*%
X47750000Y-87500000D03*
%TD*%
%TO.P,,1*%
%TO.N,N/C*%
X55250000Y-70000000D03*
%TD*%
%TO.P,,1*%
%TO.N,N/C*%
X46250000Y-30000000D03*
%TD*%
%TO.P,,1*%
%TO.N,N/C*%
X59750000Y-52500000D03*
%TD*%
%TO.P,,1*%
%TO.N,N/C*%
X34250000Y-55000000D03*
%TD*%
%TO.P,,1*%
%TO.N,N/C*%
X58250000Y-50000000D03*
%TD*%
%TO.P,,1*%
%TO.N,N/C*%
X62750000Y-37500000D03*
%TD*%
%TO.P,,1*%
%TO.N,N/C*%
X46250000Y-85000000D03*
%TD*%
%TO.P,,1*%
%TO.N,N/C*%
X62750000Y-77500000D03*
%TD*%
%TO.P,,1*%
%TO.N,N/C*%
X41750000Y-32500000D03*
%TD*%
%TO.P,,1*%
%TO.N,N/C*%
X50750000Y-42500000D03*
%TD*%
%TO.P,,1*%
%TO.N,N/C*%
X58250000Y-60000000D03*
%TD*%
%TO.P,,1*%
%TO.N,N/C*%
X32750000Y-62500000D03*
%TD*%
%TO.P,,1*%
%TO.N,N/C*%
X59750000Y-42500000D03*
%TD*%
%TO.P,REF\u002A\u002A,1*%
%TO.N,N/C*%
X40250000Y-30000000D03*
%TD*%
%TO.P,,1*%
%TO.N,N/C*%
X40250000Y-65000000D03*
%TD*%
%TO.P,,1*%
%TO.N,N/C*%
X52250000Y-90000000D03*
%TD*%
%TO.P,,1*%
%TO.N,N/C*%
X59750000Y-67500000D03*
%TD*%
%TO.P,,1*%
%TO.N,N/C*%
X38750000Y-67500000D03*
%TD*%
%TO.P,,1*%
%TO.N,N/C*%
X67250000Y-65000000D03*
%TD*%
%TO.P,,1*%
%TO.N,N/C*%
X49250000Y-90000000D03*
%TD*%
%TO.P,,1*%
%TO.N,N/C*%
X50750000Y-87500000D03*
%TD*%
%TO.P,,1*%
%TO.N,N/C*%
X47750000Y-47500000D03*
%TD*%
%TO.P,,1*%
%TO.N,N/C*%
X46250000Y-65000000D03*
%TD*%
%TO.P,,1*%
%TO.N,N/C*%
X53750000Y-27500000D03*
%TD*%
%TO.P,,1*%
%TO.N,N/C*%
X44750000Y-62500000D03*
%TD*%
%TO.P,,1*%
%TO.N,N/C*%
X50750000Y-82500000D03*
%TD*%
%TO.P,,1*%
%TO.N,N/C*%
X43250000Y-70000000D03*
%TD*%
%TO.P,,1*%
%TO.N,N/C*%
X49250000Y-50000000D03*
%TD*%
%TO.P,,1*%
%TO.N,N/C*%
X46250000Y-60000000D03*
%TD*%
%TO.P,,1*%
%TO.N,N/C*%
X31250000Y-65000000D03*
%TD*%
%TO.P,,1*%
%TO.N,N/C*%
X64250000Y-50000000D03*
%TD*%
%TO.P,,1*%
%TO.N,N/C*%
X64250000Y-45000000D03*
%TD*%
%TO.P,,1*%
%TO.N,N/C*%
X41750000Y-87500000D03*
%TD*%
%TO.P,,1*%
%TO.N,N/C*%
X56750000Y-67500000D03*
%TD*%
%TO.P,,1*%
%TO.N,N/C*%
X37250000Y-75000000D03*
%TD*%
%TO.P,,1*%
%TO.N,N/C*%
X34250000Y-50000000D03*
%TD*%
%TO.P,,1*%
%TO.N,N/C*%
X37250000Y-35000000D03*
%TD*%
%TO.P,,1*%
%TO.N,N/C*%
X50750000Y-72500000D03*
%TD*%
%TO.P,,1*%
%TO.N,N/C*%
X32750000Y-77500000D03*
%TD*%
%TO.P,,1*%
%TO.N,N/C*%
X65750000Y-62500000D03*
%TD*%
%TO.P,,1*%
%TO.N,N/C*%
X68750000Y-77500000D03*
%TD*%
%TO.P,,1*%
%TO.N,N/C*%
X55250000Y-75000000D03*
%TD*%
%TO.P,,1*%
%TO.N,N/C*%
X64250000Y-75000000D03*
%TD*%
%TO.P,,1*%
%TO.N,N/C*%
X31250000Y-70000000D03*
%TD*%
%TO.P,,1*%
%TO.N,N/C*%
X71750000Y-72500000D03*
%TD*%
%TO.P,,1*%
%TO.N,N/C*%
X41750000Y-37500000D03*
%TD*%
%TO.P,,1*%
%TO.N,N/C*%
X31250000Y-60000000D03*
%TD*%
%TO.P,,1*%
%TO.N,N/C*%
X67250000Y-55000000D03*
%TD*%
%TO.P,,1*%
%TO.N,N/C*%
X55250000Y-85000000D03*
%TD*%
%TO.P,,1*%
%TO.N,N/C*%
X37250000Y-50000000D03*
%TD*%
%TO.P,,1*%
%TO.N,N/C*%
X65750000Y-67500000D03*
%TD*%
%TO.P,,1*%
%TO.N,N/C*%
X71750000Y-57500000D03*
%TD*%
%TO.P,,1*%
%TO.N,N/C*%
X71750000Y-47500000D03*
%TD*%
%TO.P,,1*%
%TO.N,N/C*%
X62750000Y-47500000D03*
%TD*%
%TO.P,,1*%
%TO.N,N/C*%
X40250000Y-80000000D03*
%TD*%
%TO.P,,1*%
%TO.N,N/C*%
X49250000Y-45000000D03*
%TD*%
%TO.P,,1*%
%TO.N,N/C*%
X67250000Y-40000000D03*
%TD*%
%TO.P,,1*%
%TO.N,N/C*%
X35750000Y-72500000D03*
%TD*%
%TO.P,,1*%
%TO.N,N/C*%
X46250000Y-55000000D03*
%TD*%
%TO.P,,1*%
%TO.N,N/C*%
X41750000Y-42500000D03*
%TD*%
%TO.P,,1*%
%TO.N,N/C*%
X53750000Y-62500000D03*
%TD*%
%TO.P,,1*%
%TO.N,N/C*%
X65750000Y-72500000D03*
%TD*%
%TO.P,,1*%
%TO.N,N/C*%
X59750000Y-82500000D03*
%TD*%
%TO.P,,1*%
%TO.N,N/C*%
X43250000Y-85000000D03*
%TD*%
%TO.P,,1*%
%TO.N,N/C*%
X52250000Y-60000000D03*
%TD*%
%TO.P,,1*%
%TO.N,N/C*%
X64250000Y-35000000D03*
%TD*%
%TO.P,,1*%
%TO.N,N/C*%
X28250000Y-65000000D03*
%TD*%
%TO.P,,1*%
%TO.N,N/C*%
X40250000Y-60000000D03*
%TD*%
%TO.P,,1*%
%TO.N,N/C*%
X53750000Y-67500000D03*
%TD*%
%TO.P,,1*%
%TO.N,N/C*%
X55250000Y-50000000D03*
%TD*%
%TO.P,,1*%
%TO.N,N/C*%
X59750000Y-62500000D03*
%TD*%
%TO.P,,1*%
%TO.N,N/C*%
X35750000Y-52500000D03*
%TD*%
%TO.P,,1*%
%TO.N,N/C*%
X55250000Y-45000000D03*
%TD*%
%TO.P,,1*%
%TO.N,N/C*%
X52250000Y-65000000D03*
%TD*%
%TO.P,,1*%
%TO.N,N/C*%
X56750000Y-77500000D03*
%TD*%
%TO.P,,1*%
%TO.N,N/C*%
X37250000Y-55000000D03*
%TD*%
%TO.P,,1*%
%TO.N,N/C*%
X43250000Y-90000000D03*
%TD*%
%TO.P,,1*%
%TO.N,N/C*%
X41750000Y-67500000D03*
%TD*%
M02*
