%TF.GenerationSoftware,KiCad,Pcbnew,6.0.1+dfsg-1~bpo11+1*%
%TF.CreationDate,2022-01-30T15:20:26-08:00*%
%TF.ProjectId,Stator,53746174-6f72-42e6-9b69-6361645f7063,rev?*%
%TF.SameCoordinates,Original*%
%TF.FileFunction,Copper,L2,Bot*%
%TF.FilePolarity,Positive*%
%FSLAX46Y46*%
G04 Gerber Fmt 4.6, Leading zero omitted, Abs format (unit mm)*
G04 Created by KiCad (PCBNEW 6.0.1+dfsg-1~bpo11+1) date 2022-01-30 15:20:26*
%MOMM*%
%LPD*%
G01*
G04 APERTURE LIST*
%TA.AperFunction,NonConductor*%
%ADD10C,0.010000*%
%TD*%
%TA.AperFunction,ComponentPad*%
%ADD11C,2.500000*%
%TD*%
G04 APERTURE END LIST*
D10*
X50000235Y-25000210D02*
X48713739Y-25045750D01*
X48713739Y-25045750D02*
X47444131Y-25180907D01*
X47444131Y-25180907D02*
X46192983Y-25403482D01*
X46192983Y-25403482D02*
X44961865Y-25711276D01*
X44961865Y-25711276D02*
X43752347Y-26102091D01*
X43752347Y-26102091D02*
X42566002Y-26573726D01*
X42566002Y-26573726D02*
X41404399Y-27123984D01*
X41404399Y-27123984D02*
X40269109Y-27750664D01*
X40269109Y-27750664D02*
X39161703Y-28451567D01*
X39161703Y-28451567D02*
X38083752Y-29224496D01*
X38083752Y-29224496D02*
X37036827Y-30067249D01*
X37036827Y-30067249D02*
X36022499Y-30977630D01*
X36022499Y-30977630D02*
X35042337Y-31953437D01*
X35042337Y-31953437D02*
X34097914Y-32992472D01*
X34097914Y-32992472D02*
X33190799Y-34092537D01*
X33190799Y-34092537D02*
X32322565Y-35251431D01*
X32322565Y-35251431D02*
X31494780Y-36466956D01*
X31494780Y-36466956D02*
X30709017Y-37736913D01*
X30709017Y-37736913D02*
X29966846Y-39059102D01*
X29966846Y-39059102D02*
X29269838Y-40431325D01*
X29269838Y-40431325D02*
X28619563Y-41851382D01*
X28619563Y-41851382D02*
X28017593Y-43317074D01*
X28017593Y-43317074D02*
X27465498Y-44826203D01*
X27465498Y-44826203D02*
X26964849Y-46376569D01*
X26964849Y-46376569D02*
X26517217Y-47965972D01*
X26517217Y-47965972D02*
X26124172Y-49592214D01*
X26124172Y-49592214D02*
X25787286Y-51253096D01*
X25787286Y-51253096D02*
X25508129Y-52946419D01*
X25508129Y-52946419D02*
X25288272Y-54669983D01*
X25288272Y-54669983D02*
X25129286Y-56421590D01*
X25129286Y-56421590D02*
X25032741Y-58199040D01*
X25032741Y-58199040D02*
X25000209Y-60000134D01*
X25000209Y-60000134D02*
X25129281Y-63578666D01*
X25129281Y-63578666D02*
X25508120Y-67053826D01*
X25508120Y-67053826D02*
X26124158Y-70408023D01*
X26124158Y-70408023D02*
X26964830Y-73623663D01*
X26964830Y-73623663D02*
X28017570Y-76683154D01*
X28017570Y-76683154D02*
X29269811Y-79568901D01*
X29269811Y-79568901D02*
X30708987Y-82263312D01*
X30708987Y-82263312D02*
X32322531Y-84748794D01*
X32322531Y-84748794D02*
X34097877Y-87007754D01*
X34097877Y-87007754D02*
X36022459Y-89022600D01*
X36022459Y-89022600D02*
X37036787Y-89932982D01*
X37036787Y-89932982D02*
X38083711Y-90775738D01*
X38083711Y-90775738D02*
X39161660Y-91548668D01*
X39161660Y-91548668D02*
X40269065Y-92249574D01*
X40269065Y-92249574D02*
X41404354Y-92876257D01*
X41404354Y-92876257D02*
X42565956Y-93426517D01*
X42565956Y-93426517D02*
X43752301Y-93898156D01*
X43752301Y-93898156D02*
X44961818Y-94288973D01*
X44961818Y-94288973D02*
X46192936Y-94596771D01*
X46192936Y-94596771D02*
X47444084Y-94819350D01*
X47444084Y-94819350D02*
X48713691Y-94954510D01*
X48713691Y-94954510D02*
X50000187Y-95000053D01*
X50000187Y-95000053D02*
X50629801Y-94987245D01*
X50629801Y-94987245D02*
X51258680Y-94952264D01*
X51258680Y-94952264D02*
X51886529Y-94895154D01*
X51886529Y-94895154D02*
X52513050Y-94815958D01*
X52513050Y-94815958D02*
X53137947Y-94714718D01*
X53137947Y-94714718D02*
X53760923Y-94591478D01*
X53760923Y-94591478D02*
X54381682Y-94446280D01*
X54381682Y-94446280D02*
X54999928Y-94279167D01*
X54999928Y-94279167D02*
X54999928Y-98500099D01*
X54999928Y-98500099D02*
X56999805Y-98500099D01*
X56999805Y-98500099D02*
X56999805Y-93597557D01*
X56999805Y-93597557D02*
X57989856Y-93162133D01*
X57989856Y-93162133D02*
X58959646Y-92673395D01*
X58959646Y-92673395D02*
X59908442Y-92132709D01*
X59908442Y-92132709D02*
X60835514Y-91541444D01*
X60835514Y-91541444D02*
X61740127Y-90900965D01*
X61740127Y-90900965D02*
X62621551Y-90212640D01*
X62621551Y-90212640D02*
X63479052Y-89477836D01*
X63479052Y-89477836D02*
X64311898Y-88697919D01*
X64311898Y-88697919D02*
X65119357Y-87874257D01*
X65119357Y-87874257D02*
X65900697Y-87008216D01*
X65900697Y-87008216D02*
X66655185Y-86101163D01*
X66655185Y-86101163D02*
X67382089Y-85154465D01*
X67382089Y-85154465D02*
X68080677Y-84169489D01*
X68080677Y-84169489D02*
X68750216Y-83147602D01*
X68750216Y-83147602D02*
X69389974Y-82090171D01*
X69389974Y-82090171D02*
X69999218Y-80998563D01*
X69999218Y-80998563D02*
X70577217Y-79874145D01*
X70577217Y-79874145D02*
X71123238Y-78718283D01*
X71123238Y-78718283D02*
X71636549Y-77532345D01*
X71636549Y-77532345D02*
X72116417Y-76317697D01*
X72116417Y-76317697D02*
X72562110Y-75075706D01*
X72562110Y-75075706D02*
X72972896Y-73807740D01*
X72972896Y-73807740D02*
X73348042Y-72515165D01*
X73348042Y-72515165D02*
X73686816Y-71199347D01*
X73686816Y-71199347D02*
X73988486Y-69861655D01*
X73988486Y-69861655D02*
X74252320Y-68503455D01*
X74252320Y-68503455D02*
X74477584Y-67126113D01*
X74477584Y-67126113D02*
X74663547Y-65730998D01*
X74663547Y-65730998D02*
X74809477Y-64319474D01*
X74809477Y-64319474D02*
X74914640Y-62892911D01*
X74914640Y-62892911D02*
X74978306Y-61452674D01*
X74978306Y-61452674D02*
X74999741Y-60000130D01*
X74999741Y-60000130D02*
X74870672Y-56421649D01*
X74870672Y-56421649D02*
X74491844Y-52946535D01*
X74491844Y-52946535D02*
X73875822Y-49592379D01*
X73875822Y-49592379D02*
X73035172Y-46376775D01*
X73035172Y-46376775D02*
X71982459Y-43317316D01*
X71982459Y-43317316D02*
X70730249Y-40431592D01*
X70730249Y-40431592D02*
X69291108Y-37737198D01*
X69291108Y-37737198D02*
X67677602Y-35251724D01*
X67677602Y-35251724D02*
X65902295Y-32992765D01*
X65902295Y-32992765D02*
X63977755Y-30977912D01*
X63977755Y-30977912D02*
X62963449Y-30067523D01*
X62963449Y-30067523D02*
X61916547Y-29224758D01*
X61916547Y-29224758D02*
X60838619Y-28451816D01*
X60838619Y-28451816D02*
X59731236Y-27750895D01*
X59731236Y-27750895D02*
X58595969Y-27124196D01*
X58595969Y-27124196D02*
X57434388Y-26573916D01*
X57434388Y-26573916D02*
X56248065Y-26102256D01*
X56248065Y-26102256D02*
X55038569Y-25711413D01*
X55038569Y-25711413D02*
X53807472Y-25403588D01*
X53807472Y-25403588D02*
X52556345Y-25180979D01*
X52556345Y-25180979D02*
X51286757Y-25045786D01*
X51286757Y-25045786D02*
X50000280Y-25000206D01*
X50000280Y-25000206D02*
X50000235Y-25000210D01*
X50000235Y-25000210D02*
X50000235Y-25000210D01*
G36*
X51286757Y-25045786D02*
G01*
X52556345Y-25180979D01*
X53807472Y-25403588D01*
X55038569Y-25711413D01*
X56248065Y-26102256D01*
X57434388Y-26573916D01*
X58595969Y-27124196D01*
X59731236Y-27750895D01*
X60838619Y-28451816D01*
X61916547Y-29224758D01*
X62963449Y-30067523D01*
X63977755Y-30977912D01*
X65902295Y-32992765D01*
X67677602Y-35251724D01*
X69291108Y-37737198D01*
X70730249Y-40431592D01*
X71982459Y-43317316D01*
X73035172Y-46376775D01*
X73875822Y-49592379D01*
X74491844Y-52946535D01*
X74870672Y-56421649D01*
X74999741Y-60000130D01*
X74978306Y-61452674D01*
X74914640Y-62892911D01*
X74809477Y-64319474D01*
X74663547Y-65730998D01*
X74477584Y-67126113D01*
X74252320Y-68503455D01*
X73988486Y-69861655D01*
X73686816Y-71199347D01*
X73348042Y-72515165D01*
X72972896Y-73807740D01*
X72562110Y-75075706D01*
X72116417Y-76317697D01*
X71636549Y-77532345D01*
X71123238Y-78718283D01*
X70577217Y-79874145D01*
X69999218Y-80998563D01*
X69389974Y-82090171D01*
X68750216Y-83147602D01*
X68080677Y-84169489D01*
X67382089Y-85154465D01*
X66655185Y-86101163D01*
X65900697Y-87008216D01*
X65119357Y-87874257D01*
X64311898Y-88697919D01*
X63479052Y-89477836D01*
X62621551Y-90212640D01*
X61740127Y-90900965D01*
X60835514Y-91541444D01*
X59908442Y-92132709D01*
X58959646Y-92673395D01*
X57989856Y-93162133D01*
X56999805Y-93597557D01*
X56999805Y-98500099D01*
X54999928Y-98500099D01*
X54999928Y-94279167D01*
X54381682Y-94446280D01*
X53760923Y-94591478D01*
X53137947Y-94714718D01*
X52513050Y-94815958D01*
X51886529Y-94895154D01*
X51258680Y-94952264D01*
X50629801Y-94987245D01*
X50000187Y-95000053D01*
X48713691Y-94954510D01*
X47444084Y-94819350D01*
X46192936Y-94596771D01*
X44961818Y-94288973D01*
X43752301Y-93898156D01*
X42565956Y-93426517D01*
X41404354Y-92876257D01*
X40269065Y-92249574D01*
X39161660Y-91548668D01*
X38083711Y-90775738D01*
X37036787Y-89932982D01*
X36022459Y-89022600D01*
X34097877Y-87007754D01*
X32322531Y-84748794D01*
X30708987Y-82263312D01*
X29269811Y-79568901D01*
X28017570Y-76683154D01*
X26964830Y-73623663D01*
X26124158Y-70408023D01*
X25508120Y-67053826D01*
X25129281Y-63578666D01*
X25000209Y-60000134D01*
X25032741Y-58199040D01*
X25129286Y-56421590D01*
X25288272Y-54669983D01*
X25508129Y-52946419D01*
X25787286Y-51253096D01*
X26124172Y-49592214D01*
X26517217Y-47965972D01*
X26964849Y-46376569D01*
X27465498Y-44826203D01*
X28017593Y-43317074D01*
X28619563Y-41851382D01*
X29269838Y-40431325D01*
X29966846Y-39059102D01*
X30709017Y-37736913D01*
X31494780Y-36466956D01*
X32322565Y-35251431D01*
X33190799Y-34092537D01*
X34097914Y-32992472D01*
X35042337Y-31953437D01*
X36022499Y-30977630D01*
X37036827Y-30067249D01*
X38083752Y-29224496D01*
X39161703Y-28451567D01*
X40269109Y-27750664D01*
X41404399Y-27123984D01*
X42566002Y-26573726D01*
X43752347Y-26102091D01*
X44961865Y-25711276D01*
X46192983Y-25403482D01*
X47444131Y-25180907D01*
X48713739Y-25045750D01*
X50000235Y-25000210D01*
X50000280Y-25000206D01*
X51286757Y-25045786D01*
G37*
X51286757Y-25045786D02*
X52556345Y-25180979D01*
X53807472Y-25403588D01*
X55038569Y-25711413D01*
X56248065Y-26102256D01*
X57434388Y-26573916D01*
X58595969Y-27124196D01*
X59731236Y-27750895D01*
X60838619Y-28451816D01*
X61916547Y-29224758D01*
X62963449Y-30067523D01*
X63977755Y-30977912D01*
X65902295Y-32992765D01*
X67677602Y-35251724D01*
X69291108Y-37737198D01*
X70730249Y-40431592D01*
X71982459Y-43317316D01*
X73035172Y-46376775D01*
X73875822Y-49592379D01*
X74491844Y-52946535D01*
X74870672Y-56421649D01*
X74999741Y-60000130D01*
X74978306Y-61452674D01*
X74914640Y-62892911D01*
X74809477Y-64319474D01*
X74663547Y-65730998D01*
X74477584Y-67126113D01*
X74252320Y-68503455D01*
X73988486Y-69861655D01*
X73686816Y-71199347D01*
X73348042Y-72515165D01*
X72972896Y-73807740D01*
X72562110Y-75075706D01*
X72116417Y-76317697D01*
X71636549Y-77532345D01*
X71123238Y-78718283D01*
X70577217Y-79874145D01*
X69999218Y-80998563D01*
X69389974Y-82090171D01*
X68750216Y-83147602D01*
X68080677Y-84169489D01*
X67382089Y-85154465D01*
X66655185Y-86101163D01*
X65900697Y-87008216D01*
X65119357Y-87874257D01*
X64311898Y-88697919D01*
X63479052Y-89477836D01*
X62621551Y-90212640D01*
X61740127Y-90900965D01*
X60835514Y-91541444D01*
X59908442Y-92132709D01*
X58959646Y-92673395D01*
X57989856Y-93162133D01*
X56999805Y-93597557D01*
X56999805Y-98500099D01*
X54999928Y-98500099D01*
X54999928Y-94279167D01*
X54381682Y-94446280D01*
X53760923Y-94591478D01*
X53137947Y-94714718D01*
X52513050Y-94815958D01*
X51886529Y-94895154D01*
X51258680Y-94952264D01*
X50629801Y-94987245D01*
X50000187Y-95000053D01*
X48713691Y-94954510D01*
X47444084Y-94819350D01*
X46192936Y-94596771D01*
X44961818Y-94288973D01*
X43752301Y-93898156D01*
X42565956Y-93426517D01*
X41404354Y-92876257D01*
X40269065Y-92249574D01*
X39161660Y-91548668D01*
X38083711Y-90775738D01*
X37036787Y-89932982D01*
X36022459Y-89022600D01*
X34097877Y-87007754D01*
X32322531Y-84748794D01*
X30708987Y-82263312D01*
X29269811Y-79568901D01*
X28017570Y-76683154D01*
X26964830Y-73623663D01*
X26124158Y-70408023D01*
X25508120Y-67053826D01*
X25129281Y-63578666D01*
X25000209Y-60000134D01*
X25032741Y-58199040D01*
X25129286Y-56421590D01*
X25288272Y-54669983D01*
X25508129Y-52946419D01*
X25787286Y-51253096D01*
X26124172Y-49592214D01*
X26517217Y-47965972D01*
X26964849Y-46376569D01*
X27465498Y-44826203D01*
X28017593Y-43317074D01*
X28619563Y-41851382D01*
X29269838Y-40431325D01*
X29966846Y-39059102D01*
X30709017Y-37736913D01*
X31494780Y-36466956D01*
X32322565Y-35251431D01*
X33190799Y-34092537D01*
X34097914Y-32992472D01*
X35042337Y-31953437D01*
X36022499Y-30977630D01*
X37036827Y-30067249D01*
X38083752Y-29224496D01*
X39161703Y-28451567D01*
X40269109Y-27750664D01*
X41404399Y-27123984D01*
X42566002Y-26573726D01*
X43752347Y-26102091D01*
X44961865Y-25711276D01*
X46192983Y-25403482D01*
X47444131Y-25180907D01*
X48713739Y-25045750D01*
X50000235Y-25000210D01*
X50000280Y-25000206D01*
X51286757Y-25045786D01*
D11*
%TO.P,,1*%
%TO.N,N/C*%
X34250000Y-85000000D03*
%TD*%
%TO.P,,1*%
%TO.N,N/C*%
X29750000Y-77500000D03*
%TD*%
%TO.P,,1*%
%TO.N,N/C*%
X29750000Y-42500000D03*
%TD*%
%TO.P,,1*%
%TO.N,N/C*%
X34250000Y-35000000D03*
%TD*%
%TO.P,,1*%
%TO.N,N/C*%
X37250000Y-70000000D03*
%TD*%
%TO.P,,1*%
%TO.N,N/C*%
X56750000Y-82500000D03*
%TD*%
%TO.P,,1*%
%TO.N,N/C*%
X38750000Y-62500000D03*
%TD*%
%TO.P,,1*%
%TO.N,N/C*%
X50750000Y-77500000D03*
%TD*%
%TO.P,,1*%
%TO.N,N/C*%
X64250000Y-60000000D03*
%TD*%
%TO.P,,1*%
%TO.N,N/C*%
X53750000Y-52500000D03*
%TD*%
%TO.P,,1*%
%TO.N,N/C*%
X44750000Y-52500000D03*
%TD*%
%TO.P,,1*%
%TO.N,N/C*%
X56750000Y-37500000D03*
%TD*%
%TO.P,,1*%
%TO.N,N/C*%
X43250000Y-30000000D03*
%TD*%
%TO.P,,1*%
%TO.N,N/C*%
X52250000Y-45000000D03*
%TD*%
%TO.P,,1*%
%TO.N,N/C*%
X62750000Y-32500000D03*
%TD*%
%TO.P,,1*%
%TO.N,N/C*%
X68750000Y-42500000D03*
%TD*%
%TO.P,,1*%
%TO.N,N/C*%
X59750000Y-72500000D03*
%TD*%
%TO.P,,1*%
%TO.N,N/C*%
X34250000Y-40000000D03*
%TD*%
%TO.P,,1*%
%TO.N,N/C*%
X49250000Y-65000000D03*
%TD*%
%TO.P,,1*%
%TO.N,N/C*%
X37250000Y-40000000D03*
%TD*%
%TO.P,,1*%
%TO.N,N/C*%
X49250000Y-60000000D03*
%TD*%
%TO.P,,1*%
%TO.N,N/C*%
X58250000Y-75000000D03*
%TD*%
%TO.P,,1*%
%TO.N,N/C*%
X61250000Y-55000000D03*
%TD*%
%TO.P,,1*%
%TO.N,N/C*%
X53750000Y-82500000D03*
%TD*%
%TO.P,,1*%
%TO.N,N/C*%
X40250000Y-55000000D03*
%TD*%
%TO.P,,1*%
%TO.N,N/C*%
X35750000Y-47500000D03*
%TD*%
%TO.P,,1*%
%TO.N,N/C*%
X61250000Y-50000000D03*
%TD*%
%TO.P,,1*%
%TO.N,N/C*%
X61250000Y-65000000D03*
%TD*%
%TO.P,,1*%
%TO.N,N/C*%
X58250000Y-70000000D03*
%TD*%
%TO.P,,1*%
%TO.N,N/C*%
X49250000Y-40000000D03*
%TD*%
%TO.P,,1*%
%TO.N,N/C*%
X53750000Y-72500000D03*
%TD*%
%TO.P,,1*%
%TO.N,N/C*%
X59750000Y-87500000D03*
%TD*%
%TO.P,,1*%
%TO.N,N/C*%
X38750000Y-82500000D03*
%TD*%
%TO.P,,1*%
%TO.N,N/C*%
X28250000Y-70000000D03*
%TD*%
%TO.P,,1*%
%TO.N,N/C*%
X35750000Y-82500000D03*
%TD*%
%TO.P,,1*%
%TO.N,N/C*%
X70250000Y-70000000D03*
%TD*%
%TO.P,,1*%
%TO.N,N/C*%
X37250000Y-65000000D03*
%TD*%
%TO.P,,1*%
%TO.N,N/C*%
X50750000Y-52500000D03*
%TD*%
%TO.P,,1*%
%TO.N,N/C*%
X52250000Y-30000000D03*
%TD*%
%TO.P,,1*%
%TO.N,N/C*%
X61250000Y-60000000D03*
%TD*%
%TO.P,,1*%
%TO.N,N/C*%
X55250000Y-65000000D03*
%TD*%
%TO.P,,1*%
%TO.N,N/C*%
X67250000Y-70000000D03*
%TD*%
%TO.P,,1*%
%TO.N,N/C*%
X31250000Y-50000000D03*
%TD*%
%TO.P,,1*%
%TO.N,N/C*%
X43250000Y-55000000D03*
%TD*%
%TO.P,,1*%
%TO.N,N/C*%
X61250000Y-35000000D03*
%TD*%
%TO.P,,1*%
%TO.N,N/C*%
X28250000Y-55000000D03*
%TD*%
%TO.P,,1*%
%TO.N,N/C*%
X31250000Y-55000000D03*
%TD*%
%TO.P,,1*%
%TO.N,N/C*%
X35750000Y-37500000D03*
%TD*%
%TO.P,,1*%
%TO.N,N/C*%
X38750000Y-32500000D03*
%TD*%
%TO.P,,1*%
%TO.N,N/C*%
X65750000Y-42500000D03*
%TD*%
%TO.P,,1*%
%TO.N,N/C*%
X68750000Y-67500000D03*
%TD*%
%TO.P,,1*%
%TO.N,N/C*%
X47750000Y-32500000D03*
%TD*%
%TO.P,,1*%
%TO.N,N/C*%
X53750000Y-32500000D03*
%TD*%
%TO.P,,1*%
%TO.N,N/C*%
X41750000Y-57500000D03*
%TD*%
%TO.P,,1*%
%TO.N,N/C*%
X62750000Y-72500000D03*
%TD*%
%TO.P,,1*%
%TO.N,N/C*%
X38750000Y-42500000D03*
%TD*%
%TO.P,,1*%
%TO.N,N/C*%
X46250000Y-35000000D03*
%TD*%
%TO.P,,1*%
%TO.N,N/C*%
X31250000Y-75000000D03*
%TD*%
%TO.P,,1*%
%TO.N,N/C*%
X50750000Y-32500000D03*
%TD*%
%TO.P,,1*%
%TO.N,N/C*%
X70250000Y-55000000D03*
%TD*%
%TO.P,,1*%
%TO.N,N/C*%
X46250000Y-40000000D03*
%TD*%
%TO.P,,1*%
%TO.N,N/C*%
X46250000Y-75000000D03*
%TD*%
%TO.P,,1*%
%TO.N,N/C*%
X44750000Y-72500000D03*
%TD*%
%TO.P,,1*%
%TO.N,N/C*%
X32750000Y-47500000D03*
%TD*%
%TO.P,,1*%
%TO.N,N/C*%
X62750000Y-57500000D03*
%TD*%
%TO.P,,1*%
%TO.N,N/C*%
X52250000Y-80000000D03*
%TD*%
%TO.P,,1*%
%TO.N,N/C*%
X35750000Y-42500000D03*
%TD*%
%TO.P,,1*%
%TO.N,N/C*%
X40250000Y-45000000D03*
%TD*%
%TO.P,,1*%
%TO.N,N/C*%
X34250000Y-70000000D03*
%TD*%
%TO.P,,1*%
%TO.N,N/C*%
X28250000Y-60000000D03*
%TD*%
%TO.P,,1*%
%TO.N,N/C*%
X61250000Y-70000000D03*
%TD*%
%TO.P,,1*%
%TO.N,N/C*%
X35750000Y-62500000D03*
%TD*%
%TO.P,,1*%
%TO.N,N/C*%
X65750000Y-52500000D03*
%TD*%
%TO.P,,1*%
%TO.N,N/C*%
X73250000Y-65000000D03*
%TD*%
%TO.P,,1*%
%TO.N,N/C*%
X49250000Y-35000000D03*
%TD*%
%TO.P,,1*%
%TO.N,N/C*%
X43250000Y-45000000D03*
%TD*%
%TO.P,,1*%
%TO.N,N/C*%
X47750000Y-62500000D03*
%TD*%
%TO.P,,1*%
%TO.N,N/C*%
X55250000Y-35000000D03*
%TD*%
%TO.P,,1*%
%TO.N,N/C*%
X58250000Y-55000000D03*
%TD*%
%TO.P,,1*%
%TO.N,N/C*%
X59750000Y-47500000D03*
%TD*%
%TO.P,,1*%
%TO.N,N/C*%
X55250000Y-30000000D03*
%TD*%
%TO.P,,1*%
%TO.N,N/C*%
X53750000Y-92500000D03*
%TD*%
%TO.P,,1*%
%TO.N,N/C*%
X46250000Y-90000000D03*
%TD*%
%TO.P,,1*%
%TO.N,N/C*%
X34250000Y-45000000D03*
%TD*%
%TO.P,,1*%
%TO.N,N/C*%
X70250000Y-45000000D03*
%TD*%
%TO.P,,1*%
%TO.N,N/C*%
X49250000Y-75000000D03*
%TD*%
%TO.P,,1*%
%TO.N,N/C*%
X32750000Y-57500000D03*
%TD*%
%TO.P,,1*%
%TO.N,N/C*%
X47750000Y-37500000D03*
%TD*%
%TO.P,,1*%
%TO.N,N/C*%
X43250000Y-50000000D03*
%TD*%
%TO.P,,1*%
%TO.N,N/C*%
X68750000Y-47500000D03*
%TD*%
%TO.P,,1*%
%TO.N,N/C*%
X58250000Y-30000000D03*
%TD*%
%TO.P,,1*%
%TO.N,N/C*%
X55250000Y-55000000D03*
%TD*%
%TO.P,,1*%
%TO.N,N/C*%
X38750000Y-57500000D03*
%TD*%
%TO.P,,1*%
%TO.N,N/C*%
X47750000Y-57500000D03*
%TD*%
%TO.P,,1*%
%TO.N,N/C*%
X26750000Y-62500000D03*
%TD*%
%TO.P,,1*%
%TO.N,N/C*%
X65750000Y-77500000D03*
%TD*%
%TO.P,,1*%
%TO.N,N/C*%
X29750000Y-67500000D03*
%TD*%
%TO.P,,1*%
%TO.N,N/C*%
X38750000Y-77500000D03*
%TD*%
%TO.P,,1*%
%TO.N,N/C*%
X46250000Y-70000000D03*
%TD*%
%TO.P,,1*%
%TO.N,N/C*%
X47750000Y-27500000D03*
%TD*%
%TO.P,,1*%
%TO.N,N/C*%
X40250000Y-40000000D03*
%TD*%
%TO.P,,1*%
%TO.N,N/C*%
X44750000Y-37500000D03*
%TD*%
%TO.P,,1*%
%TO.N,N/C*%
X58250000Y-65000000D03*
%TD*%
%TO.P,,1*%
%TO.N,N/C*%
X50750000Y-62500000D03*
%TD*%
%TO.P,,1*%
%TO.N,N/C*%
X73250000Y-60000000D03*
%TD*%
%TO.P,,1*%
%TO.N,N/C*%
X59750000Y-57500000D03*
%TD*%
%TO.P,,1*%
%TO.N,N/C*%
X44750000Y-77500000D03*
%TD*%
%TO.P,,1*%
%TO.N,N/C*%
X61250000Y-45000000D03*
%TD*%
%TO.P,,1*%
%TO.N,N/C*%
X64250000Y-40000000D03*
%TD*%
%TO.P,,1*%
%TO.N,N/C*%
X56750000Y-42500000D03*
%TD*%
%TO.P,,1*%
%TO.N,N/C*%
X40250000Y-90000000D03*
%TD*%
%TO.P,,1*%
%TO.N,N/C*%
X46250000Y-50000000D03*
%TD*%
%TO.P,,1*%
%TO.N,N/C*%
X43250000Y-80000000D03*
%TD*%
%TO.P,,1*%
%TO.N,N/C*%
X58250000Y-40000000D03*
%TD*%
%TO.P,,1*%
%TO.N,N/C*%
X44750000Y-42500000D03*
%TD*%
%TO.P,,1*%
%TO.N,N/C*%
X41750000Y-52500000D03*
%TD*%
%TO.P,,1*%
%TO.N,N/C*%
X73250000Y-55000000D03*
%TD*%
%TO.P,,1*%
%TO.N,N/C*%
X37250000Y-80000000D03*
%TD*%
%TO.P,,1*%
%TO.N,N/C*%
X50750000Y-37500000D03*
%TD*%
%TO.P,,1*%
%TO.N,N/C*%
X50750000Y-92500000D03*
%TD*%
%TO.P,,1*%
%TO.N,N/C*%
X43250000Y-35000000D03*
%TD*%
%TO.P,,1*%
%TO.N,N/C*%
X56750000Y-72500000D03*
%TD*%
%TO.P,,1*%
%TO.N,N/C*%
X47750000Y-77500000D03*
%TD*%
%TO.P,,1*%
%TO.N,N/C*%
X29750000Y-62500000D03*
%TD*%
%TO.P,,1*%
%TO.N,N/C*%
X53750000Y-57500000D03*
%TD*%
%TO.P,,1*%
%TO.N,N/C*%
X55250000Y-90000000D03*
%TD*%
%TO.P,,1*%
%TO.N,N/C*%
X67250000Y-60000000D03*
%TD*%
%TO.P,,1*%
%TO.N,N/C*%
X29750000Y-52500000D03*
%TD*%
%TO.P,,1*%
%TO.N,N/C*%
X44750000Y-27500000D03*
%TD*%
%TO.P,,1*%
%TO.N,N/C*%
X59750000Y-77500000D03*
%TD*%
%TO.P,,1*%
%TO.N,N/C*%
X44750000Y-57500000D03*
%TD*%
%TO.P,,1*%
%TO.N,N/C*%
X32750000Y-72500000D03*
%TD*%
%TO.P,,1*%
%TO.N,N/C*%
X49250000Y-70000000D03*
%TD*%
%TO.P,,1*%
%TO.N,N/C*%
X32750000Y-37500000D03*
%TD*%
%TO.P,,1*%
%TO.N,N/C*%
X41750000Y-62500000D03*
%TD*%
%TO.P,,1*%
%TO.N,N/C*%
X58250000Y-35000000D03*
%TD*%
%TO.P,,1*%
%TO.N,N/C*%
X68750000Y-57500000D03*
%TD*%
%TO.P,,1*%
%TO.N,N/C*%
X31250000Y-80000000D03*
%TD*%
%TO.P,,1*%
%TO.N,N/C*%
X40250000Y-35000000D03*
%TD*%
%TO.P,,1*%
%TO.N,N/C*%
X41750000Y-72500000D03*
%TD*%
%TO.P,,1*%
%TO.N,N/C*%
X70250000Y-60000000D03*
%TD*%
%TO.P,,1*%
%TO.N,N/C*%
X35750000Y-77500000D03*
%TD*%
%TO.P,,1*%
%TO.N,N/C*%
X62750000Y-62500000D03*
%TD*%
%TO.P,,1*%
%TO.N,N/C*%
X49250000Y-55000000D03*
%TD*%
%TO.P,,1*%
%TO.N,N/C*%
X71750000Y-52500000D03*
%TD*%
%TO.P,,1*%
%TO.N,N/C*%
X34250000Y-75000000D03*
%TD*%
%TO.P,,1*%
%TO.N,N/C*%
X65750000Y-82500000D03*
%TD*%
%TO.P,,1*%
%TO.N,N/C*%
X38750000Y-72500000D03*
%TD*%
%TO.P,,1*%
%TO.N,N/C*%
X38750000Y-37500000D03*
%TD*%
%TO.P,,1*%
%TO.N,N/C*%
X56750000Y-87500000D03*
%TD*%
%TO.P,,1*%
%TO.N,N/C*%
X53750000Y-77500000D03*
%TD*%
%TO.P,,1*%
%TO.N,N/C*%
X41750000Y-82500000D03*
%TD*%
%TO.P,,1*%
%TO.N,N/C*%
X68750000Y-62500000D03*
%TD*%
%TO.P,,1*%
%TO.N,N/C*%
X64250000Y-65000000D03*
%TD*%
%TO.P,,1*%
%TO.N,N/C*%
X37250000Y-85000000D03*
%TD*%
%TO.P,,1*%
%TO.N,N/C*%
X37250000Y-45000000D03*
%TD*%
%TO.P,,1*%
%TO.N,N/C*%
X44750000Y-47500000D03*
%TD*%
%TO.P,,1*%
%TO.N,N/C*%
X44750000Y-32500000D03*
%TD*%
%TO.P,,1*%
%TO.N,N/C*%
X47750000Y-52500000D03*
%TD*%
%TO.P,,1*%
%TO.N,N/C*%
X64250000Y-85000000D03*
%TD*%
%TO.P,,1*%
%TO.N,N/C*%
X67250000Y-45000000D03*
%TD*%
%TO.P,,1*%
%TO.N,N/C*%
X58250000Y-45000000D03*
%TD*%
%TO.P,,1*%
%TO.N,N/C*%
X52250000Y-40000000D03*
%TD*%
%TO.P,,1*%
%TO.N,N/C*%
X58250000Y-90000000D03*
%TD*%
%TO.P,,1*%
%TO.N,N/C*%
X43250000Y-60000000D03*
%TD*%
%TO.P,,1*%
%TO.N,N/C*%
X26750000Y-57500000D03*
%TD*%
%TO.P,,1*%
%TO.N,N/C*%
X46250000Y-45000000D03*
%TD*%
%TO.P,,1*%
%TO.N,N/C*%
X67250000Y-50000000D03*
%TD*%
%TO.P,,1*%
%TO.N,N/C*%
X34250000Y-65000000D03*
%TD*%
%TO.P,,1*%
%TO.N,N/C*%
X56750000Y-47500000D03*
%TD*%
%TO.P,,1*%
%TO.N,N/C*%
X41750000Y-77500000D03*
%TD*%
%TO.P,,1*%
%TO.N,N/C*%
X58250000Y-85000000D03*
%TD*%
%TO.P,,1*%
%TO.N,N/C*%
X43250000Y-65000000D03*
%TD*%
%TO.P,,1*%
%TO.N,N/C*%
X52250000Y-70000000D03*
%TD*%
%TO.P,,1*%
%TO.N,N/C*%
X52250000Y-50000000D03*
%TD*%
%TO.P,,1*%
%TO.N,N/C*%
X62750000Y-52500000D03*
%TD*%
%TO.P,,1*%
%TO.N,N/C*%
X40250000Y-85000000D03*
%TD*%
%TO.P,,1*%
%TO.N,N/C*%
X64250000Y-80000000D03*
%TD*%
%TO.P,,1*%
%TO.N,N/C*%
X32750000Y-67500000D03*
%TD*%
%TO.P,,1*%
%TO.N,N/C*%
X52250000Y-85000000D03*
%TD*%
%TO.P,,1*%
%TO.N,N/C*%
X70250000Y-75000000D03*
%TD*%
%TO.P,,1*%
%TO.N,N/C*%
X44750000Y-67500000D03*
%TD*%
%TO.P,,1*%
%TO.N,N/C*%
X65750000Y-47500000D03*
%TD*%
%TO.P,,1*%
%TO.N,N/C*%
X52250000Y-35000000D03*
%TD*%
%TO.P,,1*%
%TO.N,N/C*%
X29750000Y-47500000D03*
%TD*%
%TO.P,,1*%
%TO.N,N/C*%
X44750000Y-92500000D03*
%TD*%
%TO.P,,1*%
%TO.N,N/C*%
X62750000Y-87500000D03*
%TD*%
%TO.P,,1*%
%TO.N,N/C*%
X50750000Y-27500000D03*
%TD*%
%TO.P,,1*%
%TO.N,N/C*%
X58250000Y-80000000D03*
%TD*%
%TO.P,,1*%
%TO.N,N/C*%
X50750000Y-67500000D03*
%TD*%
%TO.P,,1*%
%TO.N,N/C*%
X47750000Y-42500000D03*
%TD*%
%TO.P,,1*%
%TO.N,N/C*%
X61250000Y-85000000D03*
%TD*%
%TO.P,,1*%
%TO.N,N/C*%
X53750000Y-37500000D03*
%TD*%
%TO.P,,1*%
%TO.N,N/C*%
X49250000Y-80000000D03*
%TD*%
%TO.P,,1*%
%TO.N,N/C*%
X61250000Y-40000000D03*
%TD*%
%TO.P,,1*%
%TO.N,N/C*%
X68750000Y-72500000D03*
%TD*%
%TO.P,,1*%
%TO.N,N/C*%
X56750000Y-62500000D03*
%TD*%
%TO.P,,1*%
%TO.N,N/C*%
X38750000Y-87500000D03*
%TD*%
%TO.P,,1*%
%TO.N,N/C*%
X34250000Y-60000000D03*
%TD*%
%TO.P,,1*%
%TO.N,N/C*%
X32750000Y-42500000D03*
%TD*%
%TO.P,,1*%
%TO.N,N/C*%
X49250000Y-85000000D03*
%TD*%
%TO.P,,1*%
%TO.N,N/C*%
X34250000Y-80000000D03*
%TD*%
%TO.P,,1*%
%TO.N,N/C*%
X70250000Y-50000000D03*
%TD*%
%TO.P,,1*%
%TO.N,N/C*%
X61250000Y-75000000D03*
%TD*%
%TO.P,,1*%
%TO.N,N/C*%
X56750000Y-32500000D03*
%TD*%
%TO.P,,1*%
%TO.N,N/C*%
X53750000Y-87500000D03*
%TD*%
%TO.P,,1*%
%TO.N,N/C*%
X55250000Y-60000000D03*
%TD*%
%TO.P,,1*%
%TO.N,N/C*%
X55250000Y-80000000D03*
%TD*%
%TO.P,,1*%
%TO.N,N/C*%
X28250000Y-50000000D03*
%TD*%
%TO.P,,1*%
%TO.N,N/C*%
X31250000Y-45000000D03*
%TD*%
%TO.P,,1*%
%TO.N,N/C*%
X43250000Y-75000000D03*
%TD*%
%TO.P,,1*%
%TO.N,N/C*%
X64250000Y-55000000D03*
%TD*%
%TO.P,,1*%
%TO.N,N/C*%
X56750000Y-52500000D03*
%TD*%
%TO.P,,1*%
%TO.N,N/C*%
X52250000Y-75000000D03*
%TD*%
%TO.P,,1*%
%TO.N,N/C*%
X53750000Y-42500000D03*
%TD*%
%TO.P,,1*%
%TO.N,N/C*%
X71750000Y-67500000D03*
%TD*%
%TO.P,,1*%
%TO.N,N/C*%
X41750000Y-47500000D03*
%TD*%
%TO.P,,1*%
%TO.N,N/C*%
X71750000Y-62500000D03*
%TD*%
%TO.P,,1*%
%TO.N,N/C*%
X50750000Y-57500000D03*
%TD*%
%TO.P,,1*%
%TO.N,N/C*%
X67250000Y-80000000D03*
%TD*%
%TO.P,,1*%
%TO.N,N/C*%
X35750000Y-67500000D03*
%TD*%
%TO.P,,1*%
%TO.N,N/C*%
X47750000Y-82500000D03*
%TD*%
%TO.P,,1*%
%TO.N,N/C*%
X70250000Y-65000000D03*
%TD*%
%TO.P,,1*%
%TO.N,N/C*%
X32750000Y-82500000D03*
%TD*%
%TO.P,,1*%
%TO.N,N/C*%
X52250000Y-55000000D03*
%TD*%
%TO.P,,1*%
%TO.N,N/C*%
X68750000Y-52500000D03*
%TD*%
%TO.P,,1*%
%TO.N,N/C*%
X38750000Y-52500000D03*
%TD*%
%TO.P,,1*%
%TO.N,N/C*%
X65750000Y-57500000D03*
%TD*%
%TO.P,,1*%
%TO.N,N/C*%
X49250000Y-30000000D03*
%TD*%
%TO.P,,1*%
%TO.N,N/C*%
X29750000Y-72500000D03*
%TD*%
%TO.P,,1*%
%TO.N,N/C*%
X35750000Y-57500000D03*
%TD*%
%TO.P,,1*%
%TO.N,N/C*%
X44750000Y-87500000D03*
%TD*%
%TO.P,,1*%
%TO.N,N/C*%
X53750000Y-47500000D03*
%TD*%
%TO.P,,1*%
%TO.N,N/C*%
X32750000Y-52500000D03*
%TD*%
%TO.P,,1*%
%TO.N,N/C*%
X64250000Y-70000000D03*
%TD*%
%TO.P,,1*%
%TO.N,N/C*%
X62750000Y-42500000D03*
%TD*%
%TO.P,,1*%
%TO.N,N/C*%
X40250000Y-50000000D03*
%TD*%
%TO.P,,1*%
%TO.N,N/C*%
X61250000Y-80000000D03*
%TD*%
%TO.P,,1*%
%TO.N,N/C*%
X62750000Y-82500000D03*
%TD*%
%TO.P,,1*%
%TO.N,N/C*%
X37250000Y-60000000D03*
%TD*%
%TO.P,,1*%
%TO.N,N/C*%
X44750000Y-82500000D03*
%TD*%
%TO.P,,1*%
%TO.N,N/C*%
X29750000Y-57500000D03*
%TD*%
%TO.P,,1*%
%TO.N,N/C*%
X56750000Y-57500000D03*
%TD*%
%TO.P,,1*%
%TO.N,N/C*%
X31250000Y-40000000D03*
%TD*%
%TO.P,,1*%
%TO.N,N/C*%
X50750000Y-47500000D03*
%TD*%
%TO.P,,1*%
%TO.N,N/C*%
X65750000Y-37500000D03*
%TD*%
%TO.P,,1*%
%TO.N,N/C*%
X55250000Y-40000000D03*
%TD*%
%TO.P,,1*%
%TO.N,N/C*%
X59750000Y-37500000D03*
%TD*%
%TO.P,,1*%
%TO.N,N/C*%
X40250000Y-75000000D03*
%TD*%
%TO.P,,1*%
%TO.N,N/C*%
X47750000Y-67500000D03*
%TD*%
%TO.P,,e*%
%TO.N,N/C*%
X46250000Y-80000000D03*
%TD*%
%TO.P,,1*%
%TO.N,N/C*%
X47750000Y-92500000D03*
%TD*%
%TO.P,,1*%
%TO.N,N/C*%
X59750000Y-32500000D03*
%TD*%
%TO.P,,1*%
%TO.N,N/C*%
X40250000Y-70000000D03*
%TD*%
%TO.P,,1*%
%TO.N,N/C*%
X43250000Y-40000000D03*
%TD*%
%TO.P,,1*%
%TO.N,N/C*%
X62750000Y-67500000D03*
%TD*%
%TO.P,,1*%
%TO.N,N/C*%
X38750000Y-47500000D03*
%TD*%
%TO.P,,1*%
%TO.N,N/C*%
X67250000Y-75000000D03*
%TD*%
%TO.P,,1*%
%TO.N,N/C*%
X47750000Y-72500000D03*
%TD*%
%TO.P,,1*%
%TO.N,N/C*%
X47750000Y-87500000D03*
%TD*%
%TO.P,,1*%
%TO.N,N/C*%
X55250000Y-70000000D03*
%TD*%
%TO.P,,1*%
%TO.N,N/C*%
X46250000Y-30000000D03*
%TD*%
%TO.P,,1*%
%TO.N,N/C*%
X59750000Y-52500000D03*
%TD*%
%TO.P,,1*%
%TO.N,N/C*%
X34250000Y-55000000D03*
%TD*%
%TO.P,,1*%
%TO.N,N/C*%
X58250000Y-50000000D03*
%TD*%
%TO.P,,1*%
%TO.N,N/C*%
X62750000Y-37500000D03*
%TD*%
%TO.P,,1*%
%TO.N,N/C*%
X46250000Y-85000000D03*
%TD*%
%TO.P,,1*%
%TO.N,N/C*%
X62750000Y-77500000D03*
%TD*%
%TO.P,,1*%
%TO.N,N/C*%
X41750000Y-32500000D03*
%TD*%
%TO.P,,1*%
%TO.N,N/C*%
X50750000Y-42500000D03*
%TD*%
%TO.P,,1*%
%TO.N,N/C*%
X58250000Y-60000000D03*
%TD*%
%TO.P,,1*%
%TO.N,N/C*%
X32750000Y-62500000D03*
%TD*%
%TO.P,,1*%
%TO.N,N/C*%
X59750000Y-42500000D03*
%TD*%
%TO.P,REF\u002A\u002A,1*%
%TO.N,N/C*%
X40250000Y-30000000D03*
%TD*%
%TO.P,,1*%
%TO.N,N/C*%
X40250000Y-65000000D03*
%TD*%
%TO.P,,1*%
%TO.N,N/C*%
X52250000Y-90000000D03*
%TD*%
%TO.P,,1*%
%TO.N,N/C*%
X59750000Y-67500000D03*
%TD*%
%TO.P,,1*%
%TO.N,N/C*%
X38750000Y-67500000D03*
%TD*%
%TO.P,,1*%
%TO.N,N/C*%
X67250000Y-65000000D03*
%TD*%
%TO.P,,1*%
%TO.N,N/C*%
X49250000Y-90000000D03*
%TD*%
%TO.P,,1*%
%TO.N,N/C*%
X50750000Y-87500000D03*
%TD*%
%TO.P,,1*%
%TO.N,N/C*%
X47750000Y-47500000D03*
%TD*%
%TO.P,,1*%
%TO.N,N/C*%
X46250000Y-65000000D03*
%TD*%
%TO.P,,1*%
%TO.N,N/C*%
X53750000Y-27500000D03*
%TD*%
%TO.P,,1*%
%TO.N,N/C*%
X44750000Y-62500000D03*
%TD*%
%TO.P,,1*%
%TO.N,N/C*%
X50750000Y-82500000D03*
%TD*%
%TO.P,,1*%
%TO.N,N/C*%
X43250000Y-70000000D03*
%TD*%
%TO.P,,1*%
%TO.N,N/C*%
X49250000Y-50000000D03*
%TD*%
%TO.P,,1*%
%TO.N,N/C*%
X46250000Y-60000000D03*
%TD*%
%TO.P,,1*%
%TO.N,N/C*%
X31250000Y-65000000D03*
%TD*%
%TO.P,,1*%
%TO.N,N/C*%
X64250000Y-50000000D03*
%TD*%
%TO.P,,1*%
%TO.N,N/C*%
X64250000Y-45000000D03*
%TD*%
%TO.P,,1*%
%TO.N,N/C*%
X41750000Y-87500000D03*
%TD*%
%TO.P,,1*%
%TO.N,N/C*%
X56750000Y-67500000D03*
%TD*%
%TO.P,,1*%
%TO.N,N/C*%
X37250000Y-75000000D03*
%TD*%
%TO.P,,1*%
%TO.N,N/C*%
X34250000Y-50000000D03*
%TD*%
%TO.P,,1*%
%TO.N,N/C*%
X37250000Y-35000000D03*
%TD*%
%TO.P,,1*%
%TO.N,N/C*%
X50750000Y-72500000D03*
%TD*%
%TO.P,,1*%
%TO.N,N/C*%
X32750000Y-77500000D03*
%TD*%
%TO.P,,1*%
%TO.N,N/C*%
X65750000Y-62500000D03*
%TD*%
%TO.P,,1*%
%TO.N,N/C*%
X68750000Y-77500000D03*
%TD*%
%TO.P,,1*%
%TO.N,N/C*%
X55250000Y-75000000D03*
%TD*%
%TO.P,,1*%
%TO.N,N/C*%
X64250000Y-75000000D03*
%TD*%
%TO.P,,1*%
%TO.N,N/C*%
X31250000Y-70000000D03*
%TD*%
%TO.P,,1*%
%TO.N,N/C*%
X71750000Y-72500000D03*
%TD*%
%TO.P,,1*%
%TO.N,N/C*%
X41750000Y-37500000D03*
%TD*%
%TO.P,,1*%
%TO.N,N/C*%
X31250000Y-60000000D03*
%TD*%
%TO.P,,1*%
%TO.N,N/C*%
X67250000Y-55000000D03*
%TD*%
%TO.P,,1*%
%TO.N,N/C*%
X55250000Y-85000000D03*
%TD*%
%TO.P,,1*%
%TO.N,N/C*%
X37250000Y-50000000D03*
%TD*%
%TO.P,,1*%
%TO.N,N/C*%
X65750000Y-67500000D03*
%TD*%
%TO.P,,1*%
%TO.N,N/C*%
X71750000Y-57500000D03*
%TD*%
%TO.P,,1*%
%TO.N,N/C*%
X71750000Y-47500000D03*
%TD*%
%TO.P,,1*%
%TO.N,N/C*%
X62750000Y-47500000D03*
%TD*%
%TO.P,,1*%
%TO.N,N/C*%
X40250000Y-80000000D03*
%TD*%
%TO.P,,1*%
%TO.N,N/C*%
X49250000Y-45000000D03*
%TD*%
%TO.P,,1*%
%TO.N,N/C*%
X67250000Y-40000000D03*
%TD*%
%TO.P,,1*%
%TO.N,N/C*%
X35750000Y-72500000D03*
%TD*%
%TO.P,,1*%
%TO.N,N/C*%
X46250000Y-55000000D03*
%TD*%
%TO.P,,1*%
%TO.N,N/C*%
X41750000Y-42500000D03*
%TD*%
%TO.P,,1*%
%TO.N,N/C*%
X53750000Y-62500000D03*
%TD*%
%TO.P,,1*%
%TO.N,N/C*%
X65750000Y-72500000D03*
%TD*%
%TO.P,,1*%
%TO.N,N/C*%
X59750000Y-82500000D03*
%TD*%
%TO.P,,1*%
%TO.N,N/C*%
X43250000Y-85000000D03*
%TD*%
%TO.P,,1*%
%TO.N,N/C*%
X52250000Y-60000000D03*
%TD*%
%TO.P,,1*%
%TO.N,N/C*%
X64250000Y-35000000D03*
%TD*%
%TO.P,,1*%
%TO.N,N/C*%
X28250000Y-65000000D03*
%TD*%
%TO.P,,1*%
%TO.N,N/C*%
X40250000Y-60000000D03*
%TD*%
%TO.P,,1*%
%TO.N,N/C*%
X53750000Y-67500000D03*
%TD*%
%TO.P,,1*%
%TO.N,N/C*%
X55250000Y-50000000D03*
%TD*%
%TO.P,,1*%
%TO.N,N/C*%
X59750000Y-62500000D03*
%TD*%
%TO.P,,1*%
%TO.N,N/C*%
X35750000Y-52500000D03*
%TD*%
%TO.P,,1*%
%TO.N,N/C*%
X55250000Y-45000000D03*
%TD*%
%TO.P,,1*%
%TO.N,N/C*%
X52250000Y-65000000D03*
%TD*%
%TO.P,,1*%
%TO.N,N/C*%
X56750000Y-77500000D03*
%TD*%
%TO.P,,1*%
%TO.N,N/C*%
X37250000Y-55000000D03*
%TD*%
%TO.P,,1*%
%TO.N,N/C*%
X43250000Y-90000000D03*
%TD*%
%TO.P,,1*%
%TO.N,N/C*%
X41750000Y-67500000D03*
%TD*%
M02*
