M48
; DRILL file {KiCad 6.0.1+dfsg-1~bpo11+1} date Sun 30 Jan 2022 03:20:22 PM PST
; FORMAT={-:-/ absolute / inch / decimal}
; #@! TF.CreationDate,2022-01-30T15:20:22-08:00
; #@! TF.GenerationSoftware,Kicad,Pcbnew,6.0.1+dfsg-1~bpo11+1
; #@! TF.FileFunction,Plated,1,2,PTH
FMAT,2
INCH
; #@! TA.AperFunction,Plated,PTH,ComponentDrill
T1C0.0787
%
G90
G05
T1
X1.0531Y-2.2638
X1.0531Y-2.4606
X1.1122Y-1.9685
X1.1122Y-2.1654
X1.1122Y-2.3622
X1.1122Y-2.5591
X1.1122Y-2.7559
X1.1713Y-1.6732
X1.1713Y-1.8701
X1.1713Y-2.0669
X1.1713Y-2.2638
X1.1713Y-2.4606
X1.1713Y-2.6575
X1.1713Y-2.8543
X1.1713Y-3.0512
X1.2303Y-1.5748
X1.2303Y-1.7717
X1.2303Y-1.9685
X1.2303Y-2.1654
X1.2303Y-2.3622
X1.2303Y-2.5591
X1.2303Y-2.7559
X1.2303Y-2.9528
X1.2303Y-3.1496
X1.2894Y-1.4764
X1.2894Y-1.6732
X1.2894Y-1.8701
X1.2894Y-2.0669
X1.2894Y-2.2638
X1.2894Y-2.4606
X1.2894Y-2.6575
X1.2894Y-2.8543
X1.2894Y-3.0512
X1.2894Y-3.248
X1.3484Y-1.378
X1.3484Y-1.5748
X1.3484Y-1.7717
X1.3484Y-1.9685
X1.3484Y-2.1654
X1.3484Y-2.3622
X1.3484Y-2.5591
X1.3484Y-2.7559
X1.3484Y-2.9528
X1.3484Y-3.1496
X1.3484Y-3.3465
X1.4075Y-1.4764
X1.4075Y-1.6732
X1.4075Y-1.8701
X1.4075Y-2.0669
X1.4075Y-2.2638
X1.4075Y-2.4606
X1.4075Y-2.6575
X1.4075Y-2.8543
X1.4075Y-3.0512
X1.4075Y-3.248
X1.4665Y-1.378
X1.4665Y-1.5748
X1.4665Y-1.7717
X1.4665Y-1.9685
X1.4665Y-2.1654
X1.4665Y-2.3622
X1.4665Y-2.5591
X1.4665Y-2.7559
X1.4665Y-2.9528
X1.4665Y-3.1496
X1.4665Y-3.3465
X1.5256Y-1.2795
X1.5256Y-1.4764
X1.5256Y-1.6732
X1.5256Y-1.8701
X1.5256Y-2.0669
X1.5256Y-2.2638
X1.5256Y-2.4606
X1.5256Y-2.6575
X1.5256Y-2.8543
X1.5256Y-3.0512
X1.5256Y-3.248
X1.5256Y-3.4449
X1.5846Y-1.1811
X1.5846Y-1.378
X1.5846Y-1.5748
X1.5846Y-1.7717
X1.5846Y-1.9685
X1.5846Y-2.1654
X1.5846Y-2.3622
X1.5846Y-2.5591
X1.5846Y-2.7559
X1.5846Y-2.9528
X1.5846Y-3.1496
X1.5846Y-3.3465
X1.5846Y-3.5433
X1.6437Y-1.2795
X1.6437Y-1.4764
X1.6437Y-1.6732
X1.6437Y-1.8701
X1.6437Y-2.0669
X1.6437Y-2.2638
X1.6437Y-2.4606
X1.6437Y-2.6575
X1.6437Y-2.8543
X1.6437Y-3.0512
X1.6437Y-3.248
X1.6437Y-3.4449
X1.7028Y-1.1811
X1.7028Y-1.378
X1.7028Y-1.5748
X1.7028Y-1.7717
X1.7028Y-1.9685
X1.7028Y-2.1654
X1.7028Y-2.3622
X1.7028Y-2.5591
X1.7028Y-2.7559
X1.7028Y-2.9528
X1.7028Y-3.1496
X1.7028Y-3.3465
X1.7028Y-3.5433
X1.7618Y-1.0827
X1.7618Y-1.2795
X1.7618Y-1.4764
X1.7618Y-1.6732
X1.7618Y-1.8701
X1.7618Y-2.0669
X1.7618Y-2.2638
X1.7618Y-2.4606
X1.7618Y-2.6575
X1.7618Y-2.8543
X1.7618Y-3.0512
X1.7618Y-3.248
X1.7618Y-3.4449
X1.7618Y-3.6417
X1.8209Y-1.1811
X1.8209Y-1.378
X1.8209Y-1.5748
X1.8209Y-1.7717
X1.8209Y-1.9685
X1.8209Y-2.1654
X1.8209Y-2.3622
X1.8209Y-2.5591
X1.8209Y-2.7559
X1.8209Y-2.9528
X1.8209Y-3.1496
X1.8209Y-3.3465
X1.8209Y-3.5433
X1.8799Y-1.0827
X1.8799Y-1.2795
X1.8799Y-1.4764
X1.8799Y-1.6732
X1.8799Y-1.8701
X1.8799Y-2.0669
X1.8799Y-2.2638
X1.8799Y-2.4606
X1.8799Y-2.6575
X1.8799Y-2.8543
X1.8799Y-3.0512
X1.8799Y-3.248
X1.8799Y-3.4449
X1.8799Y-3.6417
X1.939Y-1.1811
X1.939Y-1.378
X1.939Y-1.5748
X1.939Y-1.7717
X1.939Y-1.9685
X1.939Y-2.1654
X1.939Y-2.3622
X1.939Y-2.5591
X1.939Y-2.7559
X1.939Y-2.9528
X1.939Y-3.1496
X1.939Y-3.3465
X1.939Y-3.5433
X1.998Y-1.0827
X1.998Y-1.2795
X1.998Y-1.4764
X1.998Y-1.6732
X1.998Y-1.8701
X1.998Y-2.0669
X1.998Y-2.2638
X1.998Y-2.4606
X1.998Y-2.6575
X1.998Y-2.8543
X1.998Y-3.0512
X1.998Y-3.248
X1.998Y-3.4449
X1.998Y-3.6417
X2.0571Y-1.1811
X2.0571Y-1.378
X2.0571Y-1.5748
X2.0571Y-1.7717
X2.0571Y-1.9685
X2.0571Y-2.1654
X2.0571Y-2.3622
X2.0571Y-2.5591
X2.0571Y-2.7559
X2.0571Y-2.9528
X2.0571Y-3.1496
X2.0571Y-3.3465
X2.0571Y-3.5433
X2.1161Y-1.0827
X2.1161Y-1.2795
X2.1161Y-1.4764
X2.1161Y-1.6732
X2.1161Y-1.8701
X2.1161Y-2.0669
X2.1161Y-2.2638
X2.1161Y-2.4606
X2.1161Y-2.6575
X2.1161Y-2.8543
X2.1161Y-3.0512
X2.1161Y-3.248
X2.1161Y-3.4449
X2.1161Y-3.6417
X2.1752Y-1.1811
X2.1752Y-1.378
X2.1752Y-1.5748
X2.1752Y-1.7717
X2.1752Y-1.9685
X2.1752Y-2.1654
X2.1752Y-2.3622
X2.1752Y-2.5591
X2.1752Y-2.7559
X2.1752Y-2.9528
X2.1752Y-3.1496
X2.1752Y-3.3465
X2.1752Y-3.5433
X2.2343Y-1.2795
X2.2343Y-1.4764
X2.2343Y-1.6732
X2.2343Y-1.8701
X2.2343Y-2.0669
X2.2343Y-2.2638
X2.2343Y-2.4606
X2.2343Y-2.6575
X2.2343Y-2.8543
X2.2343Y-3.0512
X2.2343Y-3.248
X2.2343Y-3.4449
X2.2933Y-1.1811
X2.2933Y-1.378
X2.2933Y-1.5748
X2.2933Y-1.7717
X2.2933Y-1.9685
X2.2933Y-2.1654
X2.2933Y-2.3622
X2.2933Y-2.5591
X2.2933Y-2.7559
X2.2933Y-2.9528
X2.2933Y-3.1496
X2.2933Y-3.3465
X2.2933Y-3.5433
X2.3524Y-1.2795
X2.3524Y-1.4764
X2.3524Y-1.6732
X2.3524Y-1.8701
X2.3524Y-2.0669
X2.3524Y-2.2638
X2.3524Y-2.4606
X2.3524Y-2.6575
X2.3524Y-2.8543
X2.3524Y-3.0512
X2.3524Y-3.248
X2.3524Y-3.4449
X2.4114Y-1.378
X2.4114Y-1.5748
X2.4114Y-1.7717
X2.4114Y-1.9685
X2.4114Y-2.1654
X2.4114Y-2.3622
X2.4114Y-2.5591
X2.4114Y-2.7559
X2.4114Y-2.9528
X2.4114Y-3.1496
X2.4114Y-3.3465
X2.4705Y-1.2795
X2.4705Y-1.4764
X2.4705Y-1.6732
X2.4705Y-1.8701
X2.4705Y-2.0669
X2.4705Y-2.2638
X2.4705Y-2.4606
X2.4705Y-2.6575
X2.4705Y-2.8543
X2.4705Y-3.0512
X2.4705Y-3.248
X2.4705Y-3.4449
X2.5295Y-1.378
X2.5295Y-1.5748
X2.5295Y-1.7717
X2.5295Y-1.9685
X2.5295Y-2.1654
X2.5295Y-2.3622
X2.5295Y-2.5591
X2.5295Y-2.7559
X2.5295Y-2.9528
X2.5295Y-3.1496
X2.5295Y-3.3465
X2.5886Y-1.4764
X2.5886Y-1.6732
X2.5886Y-1.8701
X2.5886Y-2.0669
X2.5886Y-2.2638
X2.5886Y-2.4606
X2.5886Y-2.6575
X2.5886Y-2.8543
X2.5886Y-3.0512
X2.5886Y-3.248
X2.6476Y-1.5748
X2.6476Y-1.7717
X2.6476Y-1.9685
X2.6476Y-2.1654
X2.6476Y-2.3622
X2.6476Y-2.5591
X2.6476Y-2.7559
X2.6476Y-2.9528
X2.6476Y-3.1496
X2.7067Y-1.6732
X2.7067Y-1.8701
X2.7067Y-2.0669
X2.7067Y-2.2638
X2.7067Y-2.4606
X2.7067Y-2.6575
X2.7067Y-2.8543
X2.7067Y-3.0512
X2.7657Y-1.7717
X2.7657Y-1.9685
X2.7657Y-2.1654
X2.7657Y-2.3622
X2.7657Y-2.5591
X2.7657Y-2.7559
X2.7657Y-2.9528
X2.8248Y-1.8701
X2.8248Y-2.0669
X2.8248Y-2.2638
X2.8248Y-2.4606
X2.8248Y-2.6575
X2.8248Y-2.8543
X2.8839Y-2.1654
X2.8839Y-2.3622
X2.8839Y-2.5591
T0
M30
