%TF.GenerationSoftware,KiCad,Pcbnew,6.0.1+dfsg-1~bpo11+1*%
%TF.CreationDate,2022-01-30T15:20:29-08:00*%
%TF.ProjectId,Stator,53746174-6f72-42e6-9b69-6361645f7063,rev?*%
%TF.SameCoordinates,Original*%
%TF.FileFunction,Profile,NP*%
%FSLAX46Y46*%
G04 Gerber Fmt 4.6, Leading zero omitted, Abs format (unit mm)*
G04 Created by KiCad (PCBNEW 6.0.1+dfsg-1~bpo11+1) date 2022-01-30 15:20:29*
%MOMM*%
%LPD*%
G01*
G04 APERTURE LIST*
%TA.AperFunction,Profile*%
%ADD10C,0.009999*%
%TD*%
G04 APERTURE END LIST*
D10*
X80000000Y-59999992D02*
X79845113Y-64089760D01*
X79845113Y-64089760D02*
X79390507Y-68061387D01*
X79390507Y-68061387D02*
X78651259Y-71894768D01*
X78651259Y-71894768D02*
X77642451Y-75569796D01*
X77642451Y-75569796D02*
X76379162Y-79066365D01*
X76379162Y-79066365D02*
X74876471Y-82364370D01*
X74876471Y-82364370D02*
X73149458Y-85443703D01*
X73149458Y-85443703D02*
X71213203Y-88284259D01*
X71213203Y-88284259D02*
X69082786Y-90865932D01*
X69082786Y-90865932D02*
X67949478Y-92053404D01*
X67949478Y-92053404D02*
X66773285Y-93168615D01*
X66773285Y-93168615D02*
X65556091Y-94209052D01*
X65556091Y-94209052D02*
X64299781Y-95172202D01*
X64299781Y-95172202D02*
X63006241Y-96055552D01*
X63006241Y-96055552D02*
X61677354Y-96856587D01*
X61677354Y-96856587D02*
X60315006Y-97572796D01*
X60315006Y-97572796D02*
X58921082Y-98201665D01*
X58921082Y-98201665D02*
X57497467Y-98740679D01*
X57497467Y-98740679D02*
X56046046Y-99187327D01*
X56046046Y-99187327D02*
X54568704Y-99539095D01*
X54568704Y-99539095D02*
X53067326Y-99793469D01*
X53067326Y-99793469D02*
X51543796Y-99947937D01*
X51543796Y-99947937D02*
X50000000Y-99999985D01*
X50000000Y-99999985D02*
X48456204Y-99947937D01*
X48456204Y-99947937D02*
X46932674Y-99793469D01*
X46932674Y-99793469D02*
X45431296Y-99539095D01*
X45431296Y-99539095D02*
X43953954Y-99187327D01*
X43953954Y-99187327D02*
X42502533Y-98740679D01*
X42502533Y-98740679D02*
X41078918Y-98201665D01*
X41078918Y-98201665D02*
X39684994Y-97572796D01*
X39684994Y-97572796D02*
X38322646Y-96856587D01*
X38322646Y-96856587D02*
X36993759Y-96055552D01*
X36993759Y-96055552D02*
X35700219Y-95172202D01*
X35700219Y-95172202D02*
X34443909Y-94209052D01*
X34443909Y-94209052D02*
X33226715Y-93168615D01*
X33226715Y-93168615D02*
X32050522Y-92053404D01*
X32050522Y-92053404D02*
X30917214Y-90865932D01*
X30917214Y-90865932D02*
X29828678Y-89608713D01*
X29828678Y-89608713D02*
X28786797Y-88284259D01*
X28786797Y-88284259D02*
X27793456Y-86895085D01*
X27793456Y-86895085D02*
X26850542Y-85443703D01*
X26850542Y-85443703D02*
X25959937Y-83932627D01*
X25959937Y-83932627D02*
X25123529Y-82364370D01*
X25123529Y-82364370D02*
X24343201Y-80741445D01*
X24343201Y-80741445D02*
X23620838Y-79066365D01*
X23620838Y-79066365D02*
X22958326Y-77341644D01*
X22958326Y-77341644D02*
X22357549Y-75569796D01*
X22357549Y-75569796D02*
X21820392Y-73753332D01*
X21820392Y-73753332D02*
X21348741Y-71894768D01*
X21348741Y-71894768D02*
X20944479Y-69996615D01*
X20944479Y-69996615D02*
X20609493Y-68061387D01*
X20609493Y-68061387D02*
X20345667Y-66091597D01*
X20345667Y-66091597D02*
X20154887Y-64089760D01*
X20154887Y-64089760D02*
X20039036Y-62058387D01*
X20039036Y-62058387D02*
X20000000Y-59999992D01*
X20000000Y-59999992D02*
X20154887Y-55910225D01*
X20154887Y-55910225D02*
X20609493Y-51938598D01*
X20609493Y-51938598D02*
X21348741Y-48105218D01*
X21348741Y-48105218D02*
X22357549Y-44430190D01*
X22357549Y-44430190D02*
X23620838Y-40933620D01*
X23620838Y-40933620D02*
X25123529Y-37635616D01*
X25123529Y-37635616D02*
X26850542Y-34556282D01*
X26850542Y-34556282D02*
X28786797Y-31715726D01*
X28786797Y-31715726D02*
X30917214Y-29134053D01*
X30917214Y-29134053D02*
X32050522Y-27946581D01*
X32050522Y-27946581D02*
X33226715Y-26831370D01*
X33226715Y-26831370D02*
X34443909Y-25790933D01*
X34443909Y-25790933D02*
X35700219Y-24827783D01*
X35700219Y-24827783D02*
X36993759Y-23944433D01*
X36993759Y-23944433D02*
X38322646Y-23143398D01*
X38322646Y-23143398D02*
X39684994Y-22427189D01*
X39684994Y-22427189D02*
X41078918Y-21798320D01*
X41078918Y-21798320D02*
X42502533Y-21259306D01*
X42502533Y-21259306D02*
X43953954Y-20812658D01*
X43953954Y-20812658D02*
X45431296Y-20460890D01*
X45431296Y-20460890D02*
X46932674Y-20206515D01*
X46932674Y-20206515D02*
X48456204Y-20052048D01*
X48456204Y-20052048D02*
X50000000Y-20000000D01*
X50000000Y-20000000D02*
X51543796Y-20052048D01*
X51543796Y-20052048D02*
X53067326Y-20206515D01*
X53067326Y-20206515D02*
X54568704Y-20460890D01*
X54568704Y-20460890D02*
X56046046Y-20812658D01*
X56046046Y-20812658D02*
X57497467Y-21259306D01*
X57497467Y-21259306D02*
X58921082Y-21798320D01*
X58921082Y-21798320D02*
X60315006Y-22427189D01*
X60315006Y-22427189D02*
X61677354Y-23143398D01*
X61677354Y-23143398D02*
X63006241Y-23944433D01*
X63006241Y-23944433D02*
X64299781Y-24827783D01*
X64299781Y-24827783D02*
X65556091Y-25790933D01*
X65556091Y-25790933D02*
X66773285Y-26831370D01*
X66773285Y-26831370D02*
X67949478Y-27946581D01*
X67949478Y-27946581D02*
X69082786Y-29134053D01*
X69082786Y-29134053D02*
X70171322Y-30391273D01*
X70171322Y-30391273D02*
X71213203Y-31715726D01*
X71213203Y-31715726D02*
X72206544Y-33104900D01*
X72206544Y-33104900D02*
X73149458Y-34556282D01*
X73149458Y-34556282D02*
X74040063Y-36067359D01*
X74040063Y-36067359D02*
X74876471Y-37635616D01*
X74876471Y-37635616D02*
X75656799Y-39258541D01*
X75656799Y-39258541D02*
X76379162Y-40933620D01*
X76379162Y-40933620D02*
X77041674Y-42658341D01*
X77041674Y-42658341D02*
X77642451Y-44430190D01*
X77642451Y-44430190D02*
X78179608Y-46246653D01*
X78179608Y-46246653D02*
X78651259Y-48105218D01*
X78651259Y-48105218D02*
X79055521Y-50003371D01*
X79055521Y-50003371D02*
X79390507Y-51938598D01*
X79390507Y-51938598D02*
X79654333Y-53908388D01*
X79654333Y-53908388D02*
X79845113Y-55910225D01*
X79845113Y-55910225D02*
X79960964Y-57941598D01*
X79960964Y-57941598D02*
X80000000Y-59999992D01*
X80000000Y-59999992D02*
X80000000Y-59999992D01*
M02*
